<svg width="34" height="24" viewBox="0 0 34 24" fill="none" xmlns="http://www.w3.org/2000/svg">
  <g clip-path="url(#clip0_355_73332)">
    <path fill-rule="evenodd" clip-rule="evenodd"
      d="M0 0H34.2V1.8469H0V0ZM0 3.69375H34.2V5.54065H0V3.69375ZM0 7.3828H34.2V9.23435H0V7.3828ZM0 11.0766H34.2V12.9234H0V11.0766ZM0 14.7703H34.2V16.6172H0V14.7703ZM0 18.4594H34.2V20.3062H0V18.4594ZM0 22.1531H34.2V24H0V22.1531Z"
      fill="#BD3D44" />
    <path fill-rule="evenodd" clip-rule="evenodd"
      d="M0 1.84692H34.2V3.69377H0V1.84692ZM0 5.54062H34.2V7.38282H0V5.54062ZM0 9.22972H34.2V11.0766H0V9.22972ZM0 12.9235H34.2V14.7703H0V12.9235ZM0 16.6172H34.2V18.4641H0V16.6172ZM0 20.3063H34.2V22.1532H0V20.3063Z"
      fill="white" />
    <path fill-rule="evenodd" clip-rule="evenodd" d="M0 0H13.6793V12.9234H0V0Z" fill="#192F5D" />
    <path fill-rule="evenodd" clip-rule="evenodd"
      d="M1.13865 0.553223L1.26522 1.06407H1.66602L1.34254 1.37817L1.46562 1.89377L1.13865 1.57502L0.815216 1.88907L0.938253 1.37817L0.611328 1.06407H1.01914L1.13865 0.553223ZM3.4203 0.553223L3.54334 1.06407H3.94763L3.62067 1.37817L3.74374 1.89377L3.4203 1.57502L3.09334 1.88907L3.21638 1.37817L2.89294 1.06407H3.29374L3.4203 0.553223ZM5.69843 0.553223L5.82499 1.06412H6.22227L5.89883 1.37822L6.02183 1.89382L5.6949 1.57507L5.37147 1.88912L5.4945 1.37822L5.16754 1.06412H5.57187L5.69843 0.553223ZM7.98008 0.553223L8.10308 1.06412H8.5074L8.18044 1.37822L8.307 1.89382L7.98004 1.57507L7.65312 1.88912L7.77968 1.37822L7.45272 1.06412H7.85352L7.98008 0.553223ZM10.2582 0.553223L10.3848 1.06412H10.7855L10.4621 1.37822L10.5851 1.89382L10.2582 1.57507L9.93473 1.88912L10.0578 1.37822L9.73437 1.06412H10.1351L10.2582 0.553223ZM12.5398 0.553223L12.6629 1.06412H13.0672L12.7402 1.37822L12.8668 1.89382L12.5398 1.57507L12.2129 1.88912L12.3394 1.37822L12.0125 1.06412H12.4168L12.5398 0.553223ZM2.28124 1.84687L2.40428 2.35787H2.80857L2.4816 2.67187L2.60115 3.18287L2.28473 2.86877L1.9578 3.18282L2.07379 2.67192L1.7574 2.35782H2.1582L2.28124 1.84687ZM4.55937 1.84687L4.68593 2.35787H5.08669L4.75973 2.67187L4.88633 3.18287L4.55933 2.86877L4.2324 3.18282L4.35897 2.67192L4.032 2.35782H4.43629L4.55937 1.84687ZM6.84102 1.84687L6.96402 2.35787H7.36834L7.04138 2.67187L7.16442 3.18287L6.84098 2.86877L6.51405 3.18282L6.63709 2.67197L6.31365 2.35787H6.71445L6.84102 1.84687ZM9.11914 1.84687L9.2457 2.35787H9.64647L9.3195 2.67187L9.44607 3.18287L9.1191 2.86877L8.79567 3.18282L8.91874 2.67192L8.59178 2.35782H8.99959L9.11914 1.84687ZM11.4008 1.84687L11.5238 2.35787H11.9281L11.6012 2.67187L11.7242 3.18287L11.4008 2.86877L11.0738 3.18282L11.1969 2.67192L10.8734 2.35782H11.2742L11.4008 1.84687ZM1.13865 3.13607L1.26522 3.65637H1.66602L1.34254 3.97042L1.46562 4.48137L1.13865 4.16262L0.815216 4.48137L0.938253 3.96572L0.611328 3.65172H1.01914L1.13865 3.13607ZM3.4203 3.13607L3.54334 3.65157H3.94763L3.62067 3.96562L3.74374 4.47662L3.4203 4.15782L3.09334 4.47657L3.21638 3.96097L2.89294 3.64692H3.29374L3.4203 3.13607ZM5.69843 3.13607L5.82499 3.65167H6.22227L5.89883 3.96572L6.02183 4.47672L5.6949 4.15792L5.37147 4.47667L5.4945 3.96107L5.16754 3.64702H5.57187L5.69843 3.13607ZM7.98008 3.13607L8.10308 3.65167H8.5074L8.18044 3.96572L8.307 4.47672L7.98004 4.15792L7.65312 4.47667L7.77968 3.96107L7.45272 3.64702H7.85352L7.98008 3.13607ZM10.2582 3.13607L10.3848 3.65167H10.7855L10.4621 3.96567L10.5851 4.47667L10.2582 4.15787L9.93473 4.47662L10.0578 3.96102L9.73437 3.64697H10.1351L10.2582 3.13607ZM12.5398 3.13607L12.6629 3.65167H13.0672L12.7402 3.96572L12.8668 4.47672L12.5398 4.15792L12.2129 4.47667L12.3394 3.96107L12.0125 3.64702H12.4168L12.5398 3.13607ZM2.28124 4.42977L2.40428 4.94072H2.80857L2.4816 5.25472L2.60468 5.77037L2.28124 5.45162L1.95428 5.76567L2.07732 5.25477L1.75388 4.94072H2.15472L2.28124 4.42977ZM4.55937 4.42977L4.68593 4.94072H5.08669L4.75973 5.25472L4.88633 5.77037L4.55933 5.45162L4.2324 5.76567L4.35897 5.25477L4.032 4.94072H4.43629L4.55937 4.42977ZM6.84102 4.42977L6.96402 4.94072H7.36834L7.04138 5.25472L7.16442 5.77037L6.84098 5.45162L6.51405 5.76567L6.63709 5.25477L6.31365 4.94072H6.71445L6.84102 4.42977ZM9.11914 4.42977L9.2457 4.94072H9.64647L9.32303 5.25472L9.44607 5.77037L9.1191 5.45162L8.79567 5.76567L8.91874 5.25477L8.59178 4.94072H8.99959L9.11914 4.42977ZM11.4008 4.42977L11.5238 4.94072H11.9281L11.6012 5.25472L11.7242 5.77037L11.4008 5.45162L11.0738 5.76567L11.1969 5.25477L10.8734 4.94072H11.2742L11.4008 4.42977ZM1.13865 5.72352L1.26522 6.23447H1.66602L1.34254 6.54847L1.46562 7.06412L1.13865 6.74537L0.815216 7.05942L0.938253 6.54852L0.611328 6.23447H1.01914L1.13865 5.72352ZM3.4203 5.72352L3.54334 6.23447H3.94763L3.62067 6.54847L3.74374 7.05947L3.4203 6.74537L3.09334 7.05942L3.21638 6.54852L2.89294 6.23447H3.29374L3.4203 5.72352ZM5.69843 5.72352L5.82499 6.23447H6.22227L5.89883 6.54847L6.02183 7.06412L5.6949 6.74537L5.37147 7.05942L5.4945 6.54852L5.16754 6.23447H5.57187L5.69843 5.72352ZM7.98008 5.72352L8.10308 6.23447H8.5074L8.18044 6.54847L8.307 7.06412L7.98004 6.74537L7.65312 7.05942L7.77968 6.54852L7.45272 6.23447H7.85352L7.98008 5.72352ZM10.2582 5.72352L10.3848 6.23447H10.7855L10.4621 6.54847L10.5851 7.06412L10.2582 6.74537L9.93473 7.05942L10.0578 6.54852L9.73437 6.23447H10.1351L10.2582 5.72352ZM12.5398 5.72352L12.6629 6.23447H13.0672L12.7402 6.54847L12.8668 7.06412L12.5398 6.74537L12.2129 7.05942L12.3394 6.54852L12.0125 6.23447H12.4168L12.5398 5.72352ZM2.28124 7.01727L2.40428 7.52822H2.80857L2.4816 7.84222L2.60468 8.35322L2.28124 8.03447L1.95428 8.35322L2.07732 7.83757L1.75388 7.52352H2.15472L2.28124 7.01727ZM4.55937 7.01727L4.68593 7.52822H5.08669L4.75973 7.84222L4.88633 8.35322L4.55933 8.03447L4.2324 8.35322L4.35897 7.83757L4.032 7.52352H4.43629L4.55937 7.01727ZM6.84102 7.01727L6.96402 7.52822H7.36834L7.04138 7.84222L7.16442 8.35322L6.84098 8.03447L6.51405 8.35322L6.63709 7.83757L6.31365 7.52352H6.71445L6.84102 7.01727ZM9.11914 7.01727L9.2457 7.52822H9.64647L9.32303 7.84222L9.44607 8.35322L9.1191 8.03447L8.79567 8.35322L8.91874 7.83757L8.59178 7.52352H8.99959L9.11914 7.01727ZM11.4008 7.01727L11.5238 7.52822H11.9281L11.6012 7.84222L11.7242 8.35322L11.4008 8.03447L11.0738 8.35322L11.1969 7.83757L10.8734 7.52352H11.2742L11.4008 7.01727ZM1.13865 8.30632L1.26522 8.82197H1.66602L1.34254 9.13597L1.46562 9.64227L1.13865 9.32822L0.815216 9.64222L0.938253 9.13132L0.611328 8.81727H1.01914L1.13865 8.30632ZM3.4203 8.30632L3.54334 8.82197H3.94763L3.62067 9.13597L3.74727 9.64227L3.42027 9.32822L3.09334 9.64222L3.2199 9.13132L2.89294 8.81727H3.29374L3.4203 8.30632ZM5.69843 8.30632L5.82499 8.82197H6.22227L5.89883 9.13597L6.02183 9.64227L5.6949 9.32822L5.37147 9.64222L5.4945 9.13132L5.16754 8.81727H5.57187L5.69843 8.30632ZM7.98008 8.30632L8.10308 8.82197H8.5074L8.18044 9.13597L8.307 9.64227L7.98004 9.32822L7.65312 9.64222L7.77968 9.13132L7.45272 8.81727H7.85352L7.98008 8.30632ZM10.2582 8.30632L10.3848 8.82197H10.7855L10.4621 9.13597L10.5851 9.64227L10.2582 9.32822L9.93473 9.64222L10.0578 9.13132L9.73437 8.81727H10.1351L10.2582 8.30632ZM12.5398 8.30632L12.6629 8.82197H13.0672L12.7402 9.13597L12.8668 9.64227L12.5398 9.32822L12.2129 9.64222L12.3394 9.13132L12.0125 8.81727H12.4168L12.5398 8.30632ZM2.28124 9.60007L2.40428 10.111H2.80857L2.4816 10.4251L2.60468 10.9407L2.28124 10.622L1.95428 10.936L2.07732 10.4251L1.75388 10.111H2.15472L2.28124 9.60007ZM4.55937 9.60007L4.68593 10.111H5.08669L4.75973 10.4251L4.88633 10.9407L4.55933 10.622L4.2324 10.936L4.35897 10.4251L4.032 10.111H4.43629L4.55937 9.60007ZM6.84102 9.60007L6.96402 10.111H7.36834L7.04138 10.4251L7.16442 10.9407L6.84098 10.622L6.51405 10.936L6.63709 10.4251L6.31365 10.111H6.71445L6.84102 9.60007ZM9.11914 9.60007L9.2457 10.111H9.64647L9.32303 10.4251L9.44607 10.9407L9.1191 10.622L8.79567 10.936L8.91874 10.4251L8.59178 10.111H8.99959L9.11914 9.60007ZM11.4008 9.60007L11.5238 10.111H11.9281L11.6012 10.4251L11.7242 10.9407L11.4008 10.622L11.0738 10.936L11.1969 10.4251L10.8734 10.111H11.2742L11.4008 9.60007ZM1.13865 10.8938L1.26522 11.4048H1.66602L1.34254 11.7188L1.46562 12.2298L1.13865 11.9157L0.815216 12.2297L0.938253 11.7141L0.611328 11.4001H1.01914L1.13865 10.8938ZM3.4203 10.8938L3.54334 11.4048H3.94763L3.62067 11.7188L3.74727 12.2298L3.42027 11.9157L3.09334 12.2297L3.2199 11.7141L2.89294 11.4001H3.29374L3.4203 10.8938ZM5.69843 10.8938L5.82499 11.4048H6.22227L5.90584 11.7188L6.02888 12.2298L5.70192 11.9157L5.37848 12.2297L5.50155 11.7141L5.17459 11.4001H5.57888L5.69843 10.8938ZM7.98008 10.8938L8.10308 11.4048H8.5074L8.18044 11.7188L8.307 12.2298L7.98004 11.9157L7.65312 12.2297L7.77968 11.7141L7.45272 11.4001H7.85352L7.98008 10.8938ZM10.2582 10.8938L10.3848 11.4048H10.7855L10.4621 11.7188L10.5851 12.2298L10.2582 11.9157L9.93473 12.2297L10.0578 11.7141L9.73437 11.4001H10.1351L10.2582 10.8938ZM12.5398 10.8938L12.6629 11.4048H13.0672L12.7402 11.7188L12.8668 12.2298L12.5398 11.9157L12.2129 12.2297L12.3394 11.7141L12.0125 11.4001H12.4168L12.5398 10.8938Z"
      fill="white" />
  </g>
  <defs>
    <clipPath id="clip0_355_73332">
      <rect width="34" height="24" fill="white" />
    </clipPath>
  </defs>
</svg>