<svg width="34" height="24" viewBox="0 0 34 24" fill="none" xmlns="http://www.w3.org/2000/svg">
  <g clip-path="url(#clip0_355_73698)">
    <path d="M0 0H34V24H0V0Z" fill="#000066" />
    <path fill-rule="evenodd" clip-rule="evenodd"
      d="M15.9271 19.6249L13.6056 19.8149L13.9243 21.9849L12.3253 20.3999L10.7262 21.9849L11.045 19.8149L8.72339 19.6249L10.7262 18.5099L9.43526 16.6849L11.6134 17.4599L12.3253 15.3749L13.0425 17.4599L15.2206 16.6849L13.9296 18.5099M25.8509 21.6249L25.2878 20.8349L26.2334 21.1699L26.5415 20.2649L26.8496 21.1699L27.7953 20.8349L27.2375 21.6249L28.1087 22.1099L27.0993 22.1949L27.2375 23.1399L26.5468 22.4449L25.8456 23.1399L25.9837 22.1949L24.9743 22.1149M25.8456 7.51991L25.2878 6.72991L26.2334 7.06491L26.5415 6.15991L26.8496 7.06491L27.7953 6.72991L27.2375 7.51991L28.1087 8.00991L27.0993 8.08991L27.2375 9.03491L26.5468 8.34491L25.8456 9.02991L25.9837 8.08991L24.9743 8.00991M20.2303 13.2499L19.6725 12.4599L20.6181 12.7949L20.9262 11.8899L21.2396 12.7949L22.1853 12.4599L21.6221 13.2499L22.4934 13.7349L21.484 13.8199L21.6275 14.7649L20.9262 14.0699L20.2356 14.7649L20.3684 13.8199L19.359 13.7399M30.85 11.8399L30.2815 11.0499L31.2271 11.3849L31.5353 10.4799L31.8487 11.3849L32.7943 11.0499L32.2365 11.8399L33.1024 12.3249L32.0931 12.4099L32.2312 13.3499L31.5406 12.6599L30.8393 13.3499L30.9774 12.4099L29.9681 12.3249M28.794 15.9999L28.2468 16.3249L28.4009 15.7299L27.9068 15.3399L28.5496 15.2899L28.794 14.7299L29.0437 15.2949L29.6865 15.3399L29.1925 15.7299L29.3465 16.3249"
      fill="white" />
    <path d="M0 0H17V12H0V0Z" fill="#000066" />
    <path
      d="M1.99219 0L8.47344 4.525L14.9281 0H17V1.55L10.625 6.025L17 10.475V12H14.875L8.5 7.525L2.15156 12H0V10.5L6.34844 6.05L0 1.6V0H1.99219Z"
      fill="white" />
    <path
      d="M11.2625 7.025L17 11V12L9.80156 7.025H11.2625ZM6.375 7.525L6.53438 8.4L1.43438 12H0L6.375 7.525ZM17 0V0.075L10.3859 4.775L10.4391 3.675L15.6719 0H17ZM0 0L6.34844 4.4H4.75469L0 1.05V0Z"
      fill="#C8102E" />
    <path d="M6.40156 0V12H10.6516V0H6.40156ZM0 4V8H17V4H0Z" fill="white" />
    <path d="M0 4.825V7.225H17V4.825H0ZM7.25156 0V12H9.80156V0H7.25156Z" fill="#C8102E" />
  </g>
  <defs>
    <clipPath id="clip0_355_73698">
      <rect width="34" height="24" fill="white" />
    </clipPath>
  </defs>
</svg>