<svg width="34" height="24" viewBox="0 0 34 24" fill="none" xmlns="http://www.w3.org/2000/svg">
  <g clip-path="url(#clip0_355_73744)">
    <path d="M7.97583 0H26.0201V24H7.97588L7.97583 0Z" fill="white" />
    <path
      d="M-1.04395 0H7.97567V24H-1.04395V0ZM26.0199 0H35.0395V24H26.0249L26.0199 0ZM10.6801 11.5969L9.97285 11.8219L13.235 14.5172C13.4841 15.2063 13.1504 15.4078 12.9362 15.7734L16.4724 15.3516L16.3877 18.7031L17.1248 18.6844L16.9604 15.3562L20.5065 15.7547C20.2874 15.3188 20.0932 15.0891 20.2924 14.3953L23.5496 11.8406L22.9818 11.6438C22.5136 11.3063 23.1811 10.0172 23.2807 9.20155C23.2807 9.20155 21.3831 9.8156 21.2586 9.4922L20.7705 8.61565L19.0423 10.4062C18.853 10.4485 18.7733 10.3781 18.7285 10.2281L19.5254 6.4875L18.2603 7.1578C18.1557 7.2047 18.0511 7.1672 17.9814 7.05L16.7612 4.7531L15.5061 7.1391C15.4115 7.22345 15.3169 7.2328 15.2372 7.1766L14.0319 6.5391L14.7591 10.2469C14.6993 10.3968 14.5599 10.4344 14.4005 10.3547L12.742 8.5875C12.5278 8.91565 12.3834 9.4453 12.0946 9.5672C11.8107 9.6797 10.8494 9.3422 10.2069 9.21095C10.4261 9.95625 11.1134 11.1938 10.6801 11.6016V11.5969Z"
      fill="#D52B1E" />
  </g>
  <defs>
    <clipPath id="clip0_355_73744">
      <rect width="34" height="24" fill="white" />
    </clipPath>
  </defs>
</svg>