<svg width="64" height="64" viewBox="0 0 64 64" fill="none" xmlns="http://www.w3.org/2000/svg">
<path d="M51.0983 1.79822C51.0983 1.32688 50.9109 0.874841 50.5777 0.541537C50.2445 0.208261 49.7923 0.0210155 49.321 0.0210155H40.4352C35.9606 -0.201871 31.5797 1.35529 28.2496 4.35231C24.9197 7.34935 22.9111 11.5426 22.6632 16.0158V25.6127H13.7772C13.3059 25.6127 12.8538 25.7998 12.5205 26.133C12.1872 26.4665 12 26.9184 12 27.3897V36.6312C12 37.1025 12.1872 37.5546 12.5205 37.8878C12.8538 38.221 13.3059 38.4084 13.7772 38.4084H22.6632V62.2227C22.6632 62.694 22.8503 63.1462 23.1838 63.4794C23.517 63.8126 23.9691 64 24.4404 64H35.1036C35.5749 64 36.0267 63.8126 36.3602 63.4794C36.6935 63.1462 36.8806 62.694 36.8806 62.2227V38.4084H46.1933C46.5883 38.414 46.9743 38.2877 47.2897 38.0496C47.6051 37.8116 47.8322 37.4749 47.9348 37.0931L50.494 27.8519C50.5646 27.5893 50.5742 27.314 50.5217 27.0471C50.4695 26.7803 50.3564 26.5289 50.1917 26.3127C50.0267 26.0965 49.8145 25.9208 49.5711 25.7993C49.3277 25.678 49.0598 25.614 48.7879 25.6127H36.8806V16.0158C36.9691 15.136 37.3823 14.3207 38.0394 13.7292C38.6968 13.1377 39.5509 12.8124 40.4352 12.8168H49.321C49.7923 12.8168 50.2445 12.6296 50.5777 12.2963C50.9109 11.963 51.0983 11.5109 51.0983 11.0396V1.79822Z" fill="#1877F2"/>
</svg>
