<svg width="198" height="64" viewBox="0 0 198 64" fill="none" xmlns="http://www.w3.org/2000/svg">
<path d="M85.6922 63.0767H69.6729L79.6925 1.12302H95.7109L85.6922 63.0767Z" fill="#00579F"/>
<path d="M143.763 2.63758C140.604 1.38404 135.592 -3.05176e-05 129.395 -3.05176e-05C113.576 -3.05176e-05 102.436 8.43578 102.368 20.4964C102.236 29.3948 110.343 34.3371 116.407 37.3041C122.605 40.3359 124.712 42.3148 124.712 45.0172C124.648 49.1677 119.703 51.0808 115.091 51.0808C108.696 51.0808 105.269 50.0945 100.061 47.7854L97.9517 46.7955L95.71 60.7027C99.4672 62.4144 106.389 63.9334 113.576 64C130.384 64 141.327 55.6947 141.457 42.8421C141.521 35.7895 137.24 30.3855 128.011 25.9696C122.408 23.1349 118.976 21.2235 118.976 18.3231C119.042 15.6864 121.879 12.9857 128.203 12.9857C133.411 12.8534 137.237 14.1052 140.136 15.3579L141.585 16.0157L143.763 2.63758Z" fill="#00579F"/>
<path d="M165.054 41.1287C166.374 37.5696 171.45 23.7946 171.45 23.7946C171.384 23.9268 172.767 20.1697 173.558 17.8632L174.677 23.2015C174.677 23.2015 177.711 38.0312 178.37 41.1287C175.866 41.1287 168.219 41.1287 165.054 41.1287ZM184.828 1.12302H172.437C168.616 1.12302 165.713 2.24253 164.065 6.26334L140.27 63.0758H157.079C157.079 63.0758 159.846 55.4293 160.441 53.7824C162.285 53.7824 178.636 53.7824 181.008 53.7824C181.468 55.9575 182.919 63.0758 182.919 63.0758H197.752L184.828 1.12302Z" fill="#00579F"/>
<path d="M56.293 1.12302L40.6049 43.3695L38.8906 34.8014C35.9901 24.915 26.8938 14.1736 16.7428 8.83263L31.1126 63.011H48.0526L73.2321 1.12302H56.293Z" fill="#00579F"/>
<path d="M26.0371 1.12302H0.263673L0 2.37481C20.1049 7.51601 33.42 19.9087 38.8905 34.804L33.2877 6.33079C32.3653 2.37393 29.5306 1.25354 26.0371 1.12302Z" fill="#FAA61A"/>
</svg>
