<svg width="308" height="64" viewBox="0 0 308 64" fill="none" xmlns="http://www.w3.org/2000/svg">
  <path
    d="M32 0C40.4869 0 48.6263 3.37142 54.6274 9.37258C60.6286 15.3738 64 23.5131 64 32C64 40.4869 60.6286 48.6263 54.6274 54.6274C48.6262 60.6286 40.4869 64 32 64V32V0Z"
    fill="#fff" />
  <path
    d="M12 12C17.3043 12 22.3914 14.1071 26.1421 17.8579C29.8929 21.6086 32 26.6957 32 32C32 37.3043 29.8929 42.3914 26.1421 46.1421C22.3914 49.8929 17.3043 52 12 52V32V12Z"
    fill="#fff" />
  <path
    d="M0 20C3.1826 20 6.23484 21.2643 8.48528 23.5147C10.7357 25.7652 12 28.8174 12 32C12 35.1826 10.7357 38.2348 8.48528 40.4853C6.23484 42.7357 3.1826 44 0 44V32V20Z"
    fill="#fff" />
  <path d="M88 64V0H103.043V51.027H134V64H88Z" fill="#fff" />
  <path fill-rule="evenodd" clip-rule="evenodd"
    d="M150.005 60.6836C153.561 62.8945 157.878 64 162.958 64C168.093 64 172.439 62.8945 175.995 60.6836C179.55 58.4727 182.259 55.5345 184.122 51.8691C186.041 48.2036 187 44.2473 187 40C187 35.7527 186.041 31.7964 184.122 28.1309C182.259 24.4655 179.55 21.5273 175.995 19.3164C172.439 17.1055 168.093 16 162.958 16C157.878 16 153.561 17.1055 150.005 19.3164C146.45 21.5273 143.713 24.4655 141.794 28.1309C139.931 31.7964 139 35.7527 139 40C139 44.2473 139.931 48.2036 141.794 51.8691C143.713 55.5345 146.45 58.4727 150.005 60.6836ZM162.958 51.9564C165.949 51.9564 168.263 50.7927 169.9 48.4655C171.593 46.08 172.439 43.2582 172.439 40C172.439 36.7418 171.593 33.9491 169.9 31.6218C168.263 29.2364 165.949 28.0436 162.958 28.0436C160.023 28.0436 157.709 29.2364 156.016 31.6218C154.323 33.9491 153.476 36.7418 153.476 40C153.476 43.2582 154.323 46.08 156.016 48.4655C157.709 50.7927 160.023 51.9564 162.958 51.9564Z"
    fill="#fff" />
  <path
    d="M215.979 64C212.11 64 209.038 63.3949 206.763 62.1848C204.544 60.9747 202.923 59.4764 201.899 57.69C200.875 55.846 200.22 54.002 199.936 52.158C199.652 50.2563 199.509 48.6428 199.509 47.3174V29.079H192V17.3234H199.509V6H214.101V17.3234H223.317V29.079H214.101V46.8852C214.101 48.614 214.556 49.997 215.467 51.0343C216.434 52.0139 218.055 52.5037 220.331 52.5037C221.298 52.5037 222.151 52.4461 222.891 52.3308C223.63 52.158 224 52.0715 224 52.0715V63.1356C224 63.1356 223.175 63.2797 221.525 63.5678C219.932 63.8559 218.084 64 215.979 64Z"
    fill="#fff" />
  <path
    d="M229 64V18.8518H243.857V25.6667H244.385C244.853 24.4741 245.527 23.3099 246.407 22.1741C247.344 20.9815 248.634 19.9877 250.275 19.1926C251.916 18.3975 254.084 18 256.78 18C258.07 18 259.095 18.0852 259.857 18.2556C260.619 18.4259 261 18.5111 261 18.5111V32.9074C261 32.9074 260.59 32.8222 259.769 32.6518C258.949 32.4815 257.806 32.3963 256.341 32.3963C252.179 32.3963 249.073 33.4753 247.022 35.6333C245.029 37.7914 244.033 41.3123 244.033 46.1963V64H229Z"
    fill="#fff" />
  <path
    d="M280.029 64C276.701 64 274.004 63.3185 271.939 61.9556C269.93 60.5358 268.439 58.6901 267.463 56.4185C266.488 54.0901 266 51.5346 266 48.7519V18H280.545V45.5148C280.545 47.4457 281.061 49.0358 282.094 50.2852C283.127 51.5346 284.676 52.1593 286.742 52.1593C289.094 52.1593 290.758 51.3926 291.734 49.8593C292.766 48.2691 293.283 46.4803 293.283 44.4926V18H308V63.1481H293.283V56.7593H292.766C291.619 58.7469 290.012 60.4506 287.947 61.8704C285.881 63.2901 283.242 64 280.029 64Z"
    fill="#fff" />
</svg>
  