<svg width="65" height="64" viewBox="0 0 65 64" fill="none" xmlns="http://www.w3.org/2000/svg">
<path d="M18.7719 59.8403C24.026 60.0159 29.2621 59.1368 34.1706 57.2546C39.0791 55.3723 43.5606 52.5252 47.3501 48.8814C51.1396 45.2377 54.16 40.8715 56.2333 36.0406C58.3066 31.2093 59.3905 26.012 59.4206 20.7549C61.8286 17.7753 63.6165 14.3443 64.6795 10.6638C64.7586 10.373 64.7522 10.0655 64.6611 9.77826C64.5697 9.49104 64.397 9.23635 64.1644 9.04485C63.9315 8.85337 63.6484 8.73327 63.3489 8.699C63.0494 8.66473 62.7464 8.71776 62.4764 8.8517C61.2167 9.45804 59.7984 9.65391 58.4218 9.4117C57.0448 9.16946 55.7787 8.50134 54.8015 7.50147C53.554 6.13554 52.0454 5.03387 50.3644 4.26174C48.6834 3.48963 46.8646 3.06274 45.0157 3.00641C43.1668 2.9501 41.3256 3.26546 39.6006 3.93382C37.8758 4.60218 36.3028 5.60994 34.9746 6.89741C33.156 8.6586 31.8241 10.8603 31.108 13.2885C30.392 15.7166 30.3163 18.2888 30.8885 20.7549C18.9851 21.4656 10.8127 15.816 4.27484 8.06997C4.07844 7.84756 3.82148 7.68713 3.53543 7.6083C3.24936 7.52948 2.94651 7.53566 2.6639 7.62611C2.38129 7.71655 2.13111 7.88732 1.94395 8.11757C1.75679 8.34784 1.64071 8.62763 1.60993 8.92274C0.364405 15.8318 1.26288 22.9564 4.18466 29.3396C7.10641 35.7232 11.9116 41.0596 17.9546 44.6325C13.9028 49.2796 8.21253 52.1819 2.07184 52.7338C1.74286 52.7884 1.43916 52.9443 1.20326 53.1802C0.967367 53.4158 0.81107 53.7196 0.756253 54.0484C0.701436 54.3773 0.750816 54.7152 0.89752 55.0147C1.04422 55.3142 1.28089 55.5602 1.57441 55.7185C6.91672 58.3882 12.7998 59.7982 18.7719 59.8403Z" fill="#1C9CEA"/>
</svg>
