<svg width="417" height="64" viewBox="0 0 417 64" fill="none" xmlns="http://www.w3.org/2000/svg">
<path d="M395.475 28.1095V36.8217H401.578V45.4657C401.597 46.2381 401.555 47.0711 401.423 47.7377C401.18 49.35 399.653 52.0953 395.321 52.0953C391.014 52.0953 389.515 49.35 389.255 47.7377C389.146 47.0711 389.099 46.2381 389.099 45.4657V18.1639C389.099 17.1981 389.164 16.1411 389.368 15.3411C389.664 13.886 390.949 11.0164 395.289 11.0164C399.844 11.0164 400.981 14.0417 401.241 15.3411C401.413 16.2017 401.423 17.6453 401.423 17.6453V20.9605H416.419V19.0007C416.419 19.0007 416.487 16.9558 416.305 15.0473C415.178 3.84141 405.974 0.296082 395.421 0.296082C384.849 0.296082 375.831 3.87439 374.518 15.0473C374.399 16.069 374.218 17.9069 374.218 19.0007V44.1156C374.218 45.2095 374.253 46.0563 374.455 48.0552C375.434 58.9528 384.849 62.8157 395.379 62.8157C405.974 62.8157 415.324 58.9528 416.32 48.0552C416.496 46.0563 416.515 45.2095 416.538 44.1156V28.1095H395.475ZM292.07 1.90306H277.01V46.0954C277.034 46.8655 277.01 47.7308 276.878 48.3651C276.563 49.8486 275.31 52.7036 271.155 52.7036C267.054 52.7036 265.768 49.8486 265.477 48.3651C265.327 47.7308 265.307 46.8655 265.327 46.0954V1.90306H250.271V44.7239C250.252 45.8277 250.338 48.0828 250.403 48.6735C251.442 59.8318 260.209 63.4546 271.155 63.4546C282.123 63.4546 290.884 59.8318 291.942 48.6735C292.026 48.0828 292.135 45.8277 292.07 44.7239V1.90306ZM153.695 1.90306L146.183 48.5983L138.675 1.90306H114.382L113.094 61.6398H127.976L128.379 6.33971L138.619 61.6398H153.719L163.968 6.33971L164.373 61.6398H179.293L177.961 1.90306H153.695ZM63.7516 1.90306L52.7211 61.6398H68.8065L77.1188 6.33971L85.2315 61.6398H101.205L90.2207 1.90306H63.7516ZM344.703 49.9982L330.679 1.90306H308.582V61.0169H323.2L322.351 11.3831L337.411 61.0169H358.604V1.90306H343.89L344.703 49.9982ZM209.487 17.4497C209.223 16.27 209.299 15.0166 209.436 14.3616C209.862 12.4493 211.143 10.3637 214.833 10.3637C218.272 10.3637 220.288 12.5145 220.288 15.7423V19.395H234.969V15.2314C234.969 2.36023 223.466 0.338272 215.138 0.338272C204.649 0.338272 196.083 3.80689 194.518 13.4917C194.105 16.1273 194.002 18.4668 194.66 21.4522C197.211 33.528 218.167 37.0311 221.209 44.6679C221.746 46.1146 221.592 47.9593 221.318 49.0463C220.863 51.0337 219.53 53.0326 215.579 53.0326C211.874 53.0326 209.643 50.8956 209.643 47.6748L209.639 41.9418H193.837V46.4989C193.837 59.7037 204.147 63.6878 215.252 63.6878C225.887 63.6878 234.671 60.042 236.08 50.1593C236.752 45.053 236.245 41.727 235.976 40.4744C233.513 28.0888 211.178 24.3632 209.487 17.4497M15.8278 17.3032C15.5395 16.099 15.6068 14.8279 15.7674 14.1652C16.1741 12.2621 17.4625 10.1397 21.2176 10.1397C24.7005 10.1397 26.7512 12.3112 26.7512 15.5651V19.2623H41.6041V15.0657C41.6041 2.07105 29.9252 0 21.5059 0C10.9288 0 2.28623 3.52232 0.704984 13.277C0.272205 15.9547 0.198012 18.3104 0.823477 21.3287C3.4018 33.5418 24.5652 37.0733 27.6443 44.8014C28.2208 46.2381 28.0465 48.0828 27.7605 49.2119C27.2719 51.2201 25.9285 53.2474 21.9448 53.2474C18.2249 53.2474 15.9998 51.0736 15.9998 47.8082L15.9792 42.0599H0V46.6277C0 59.9837 10.4563 64 21.6474 64C32.4064 64 41.2417 60.322 42.683 50.3249C43.3995 45.1719 42.862 41.8183 42.6203 40.5465C40.107 28.009 17.523 24.2957 15.8278 17.3032" fill="#81848F"/>
</svg>
