<svg width="160" height="100" viewBox="0 0 160 100" fill="none" xmlns="http://www.w3.org/2000/svg">
  <path
    d="M0 10C0 4.47715 4.47715 0 10 0H150C155.523 0 160 4.47715 160 10V90C160 95.5228 155.523 100 150 100H10C4.47715 100 0 95.5228 0 90V10Z"
    fill="#00579F" />
  <path d="M70.288 72.5755H58.5972L65.9095 27.3203H77.5997L70.288 72.5755Z" fill="white" />
  <path
    d="M112.668 28.4267C110.362 27.511 106.705 26.5 102.182 26.5C90.6375 26.5 82.5075 32.6621 82.4579 41.472C82.3615 47.972 88.278 51.5822 92.7035 53.7495C97.2268 55.9641 98.7645 57.4097 98.7645 59.3837C98.7178 62.4155 95.1089 63.8129 91.7431 63.8129C87.076 63.8129 84.575 63.0925 80.7742 61.4058L79.2349 60.6827L77.5989 70.8414C80.3409 72.0918 85.3924 73.2014 90.6374 73.25C102.904 73.25 110.89 67.1833 110.985 57.7948C111.032 52.6431 107.907 48.6957 101.172 45.47C97.083 43.3993 94.5784 42.0031 94.5784 39.8845C94.6265 37.9584 96.697 35.9857 101.312 35.9857C105.113 35.889 107.905 36.8034 110.021 37.7185L111.078 38.199L112.668 28.4267Z"
    fill="white" />
  <path
    d="M128.206 56.5432C129.17 53.9434 132.874 43.8812 132.874 43.8812C132.826 43.9778 133.835 41.2333 134.412 39.5485L135.229 43.448C135.229 43.448 137.443 54.2806 137.924 56.5432C136.097 56.5432 130.516 56.5432 128.206 56.5432ZM142.637 27.3203H133.594C130.806 27.3203 128.687 28.1381 127.484 31.0752L110.119 72.5749H122.386C122.386 72.5749 124.405 66.9894 124.84 65.7863C126.185 65.7863 138.118 65.7863 139.849 65.7863C140.185 67.3752 141.244 72.5749 141.244 72.5749H152.069L142.637 27.3203Z"
    fill="white" />
  <path
    d="M48.8324 27.3203L37.3833 58.18L36.1322 51.9213C34.0154 44.6996 27.3769 36.8534 19.9688 32.9519L30.4558 72.5275H42.8186L61.1945 27.3203H48.8324Z"
    fill="white" />
  <path
    d="M26.7518 27.3203H7.94243L7.75 28.2347C22.4225 31.9902 32.1399 41.0427 36.1322 51.9232L32.0433 31.1244C31.3701 28.2341 29.3014 27.4157 26.7518 27.3203Z"
    fill="#FAA61A" />
</svg>
  