<svg width="244" height="64" viewBox="0 0 244 64" fill="none" xmlns="http://www.w3.org/2000/svg">
<path d="M141.544 17.8605L155.535 12.6512L141.544 7.29302V0L165.507 9.67442V15.6279L141.544 25.3023V17.8605Z" fill="#81848F"/>
<path d="M9.22791 64C4.16744 64 0 61.4698 0 55.814V55.5163C0 48.6698 5.95349 46.2884 13.2465 46.2884H16.6698V44.9489C16.6698 42.121 15.4791 40.4838 12.5023 40.4838C9.82326 40.4838 8.48372 41.9721 8.33488 44.0559H0.893023C1.48837 37.8047 6.4 34.8279 12.9488 34.8279C19.6465 34.8279 24.5581 37.6559 24.5581 44.6512V63.4047H16.9674V60.1303C15.4791 62.214 12.9488 64 9.22791 64ZM16.6698 54.1768V51.4977H13.5442C9.67442 51.4977 7.73954 52.5396 7.73954 55.0698V55.3675C7.73954 57.3024 8.93023 58.6419 11.6093 58.6419C14.2884 58.4931 16.6698 57.0047 16.6698 54.1768ZM42.2698 64C34.5302 64 28.8744 59.2373 28.8744 49.7117V49.2652C28.8744 39.7396 34.8279 34.6791 42.2698 34.6791C48.6698 34.6791 53.8791 37.9535 54.4744 45.2466H47.0326C46.5861 42.5675 45.0977 40.7814 42.4186 40.7814C39.1442 40.7814 36.7628 43.4605 36.7628 48.9675V49.8605C36.7628 55.5163 38.8465 58.0466 42.4186 58.0466C45.0977 58.0466 47.0326 56.1117 47.4791 52.9861H54.6233C54.1767 59.5349 49.8605 64 42.2698 64ZM71.4419 64C63.7023 64 58.0465 59.2373 58.0465 49.7117V49.2652C58.0465 39.7396 64 34.6791 71.4419 34.6791C77.8419 34.6791 83.0512 37.9535 83.6465 45.2466H76.2047C75.7581 42.5675 74.2698 40.7814 71.5907 40.7814C68.3163 40.7814 65.9349 43.4605 65.9349 48.9675V49.8605C65.9349 55.5163 68.0186 58.0466 71.5907 58.0466C74.2698 58.0466 76.2047 56.1117 76.6512 52.9861H83.7954C83.3488 59.5349 79.0326 64 71.4419 64ZM100.763 64C92.7256 64 87.2186 59.2373 87.2186 49.8605V49.2652C87.2186 39.8884 93.0233 34.6791 100.614 34.6791C107.609 34.6791 113.414 38.5489 113.414 47.9256V51.3489H95.107C95.4047 56.4093 97.6372 58.3442 100.912 58.3442C103.888 58.3442 105.526 56.707 106.121 54.7721H113.414C112.521 59.9814 108.056 64 100.763 64ZM95.2558 46.1396H105.674C105.526 41.9721 103.591 40.1861 100.465 40.1861C98.0837 40.3349 95.8512 41.6745 95.2558 46.1396ZM118.177 35.4233H126.065V39.5907C127.405 36.9117 130.233 34.8279 134.549 34.8279C139.609 34.8279 143.033 37.9535 143.033 44.6512V63.4047H135.144V45.8419C135.144 42.5675 133.805 41.0791 130.977 41.0791C128.298 41.0791 126.065 42.7163 126.065 46.2884V63.4047H118.177V35.4233V35.4233ZM157.47 26.9396V35.4233H162.828V41.2279H157.47V54.4745C157.47 56.5582 158.363 57.6 160.298 57.6C161.488 57.6 162.233 57.4512 162.977 57.1535V63.2559C162.084 63.5535 160.447 63.8512 158.512 63.8512C152.409 63.8512 149.581 61.0233 149.581 55.3675V41.2279H146.307V35.4233H149.581V30.214L157.47 26.9396ZM192.298 63.4047H184.558V59.2373C183.219 61.9163 180.54 64 176.372 64C171.312 64 167.591 60.8745 167.591 54.3256V35.4233H175.479V53.2838C175.479 56.5582 176.819 58.0466 179.498 58.0466C182.177 58.0466 184.409 56.2605 184.409 52.8373V35.4233H192.298V63.4047ZM198.102 35.4233H205.991V40.6326C207.628 36.9117 210.307 35.1256 214.474 35.1256V42.8652C209.116 42.8652 205.991 44.5024 205.991 49.1163V63.5535H198.102V35.4233ZM230.4 64C222.363 64 216.856 59.2373 216.856 49.8605V49.2652C216.856 39.8884 222.66 34.6791 230.251 34.6791C237.247 34.6791 243.051 38.5489 243.051 47.9256V51.3489H224.893C225.191 56.4093 227.423 58.3442 230.698 58.3442C233.674 58.3442 235.312 56.707 235.907 54.7721H243.2C242.009 59.9814 237.693 64 230.4 64ZM224.744 46.1396H235.312C235.163 41.9721 233.228 40.1861 230.102 40.1861C227.721 40.3349 225.488 41.6745 224.744 46.1396Z" fill="#81848F"/>
</svg>
