<svg width="64" height="64" viewBox="0 0 64 64" fill="none" xmlns="http://www.w3.org/2000/svg">
<path opacity="0.8" d="M1.08433 12.1623L15.2133 12.1625L26.6543 32L15.2133 51.8379H1.08433L12.6253 32L1.08433 12.1623Z" fill="#2063F9"/>
<path d="M62.4397 33.7778L46.0348 62.2221C45.4003 63.3225 44.2278 64 42.9589 64H10.1494C8.88047 64 7.70795 63.3225 7.07341 62.2221L3.85237 56.6374L1.08433 51.8374H35.9437C37.2125 51.8374 38.3851 51.1599 39.0195 50.0599L48.4109 33.7778C49.0453 32.6778 49.0453 31.3224 48.4109 30.2222L39.0195 13.9401C38.3851 12.84 37.2127 12.1623 35.9437 12.1623H1.08433L3.85237 7.36277L7.07349 1.77778C7.70795 0.677692 8.88047 0 10.1494 0H42.9589C44.2278 0 45.4003 0.6777 46.0348 1.77781L62.4397 30.2222C63.0741 31.3224 63.0741 32.6776 62.4397 33.7778Z" fill="#1C61FF"/>
</svg>
