<svg width="112" height="64" viewBox="0 0 112 64" fill="none" xmlns="http://www.w3.org/2000/svg">
<path fill-rule="evenodd" clip-rule="evenodd" d="M89.2998 1.57248e-05V48.1179H77.7689V2.40592L89.2998 1.57248e-05ZM56.4689 52.6781C59.6532 52.6781 62.2343 55.2126 62.2343 58.339C62.2343 61.4654 59.6532 64 56.4689 64C53.2849 64 50.7036 61.4654 50.7036 58.339C50.7036 55.2126 53.2849 52.6781 56.4689 52.6781ZM56.4689 13.6649C66.2863 13.6649 74.2618 21.4802 74.2618 31.1352C74.2618 40.7902 66.2861 48.6054 56.4689 48.6054C46.6357 48.6054 38.6762 40.7902 38.6762 31.1352C38.6762 21.4802 46.6517 13.6649 56.4689 13.6649ZM56.4689 36.796C59.6559 36.796 62.2343 34.2643 62.2343 31.1352C62.2343 28.0059 59.6559 25.4742 56.4689 25.4742C53.282 25.4742 50.7036 28.0059 50.7036 31.1352C50.7036 34.2643 53.282 36.796 56.4689 36.796ZM20.195 36.796C22.1808 36.796 23.7984 35.2078 23.7984 33.2579C23.7984 31.3082 22.1808 29.7198 20.195 29.7198H11.5468V36.796H20.195ZM11.5468 11.3219V18.3981H17.9528C19.9387 18.3981 21.5562 16.8098 21.5562 14.86C21.5562 12.9101 19.9387 11.3219 17.9528 11.3219H11.5468ZM30.8129 22.6752C33.5996 25.3798 35.3291 29.1224 35.3131 33.2579C35.3131 41.4664 28.5389 48.1179 20.179 48.1179H0V0H17.9368C26.2968 0 33.071 6.6516 33.071 14.86C33.071 17.7219 32.2543 20.4109 30.8129 22.6752ZM111.08 25.6315H105.331V34.516C105.331 37.205 106.212 39.1862 108.518 39.1862C110.007 39.1862 111.096 38.856 111.096 38.856V47.1902C111.096 47.1902 108.71 48.6054 105.475 48.6054H105.331C105.187 48.6054 105.059 48.5898 104.914 48.5898H104.802C104.738 48.5898 104.658 48.5739 104.594 48.5739C98.156 48.2437 93.7839 44.2653 93.7839 37.3622V8.06683L105.315 5.66093V14.3096H111.08V25.6315Z" fill="#81848F"/>
</svg>
