<svg width="107" height="64" viewBox="0 0 107 64" fill="none" xmlns="http://www.w3.org/2000/svg">
<path d="M30.7959 22.9626C30.7959 24.2637 30.9365 25.3187 31.1827 26.0923C31.464 26.8659 31.8157 27.7099 32.308 28.6242C32.4838 28.9055 32.5541 29.1868 32.5541 29.433C32.5541 29.7846 32.3431 30.1363 31.886 30.4879L29.6706 31.9648C29.3541 32.1758 29.0376 32.2813 28.7563 32.2813C28.4047 32.2813 28.053 32.1055 27.7014 31.789C27.2091 31.2615 26.7871 30.6989 26.4354 30.1363C26.0838 29.5385 25.7321 28.8703 25.3453 28.0615C22.6025 31.2967 19.1563 32.9143 15.0069 32.9143C12.053 32.9143 9.69697 32.0703 7.97389 30.3824C6.25082 28.6945 5.3717 26.444 5.3717 23.6308C5.3717 20.6418 6.42664 18.2154 8.5717 16.3868C10.7168 14.5582 13.5651 13.644 17.1871 13.644C18.3827 13.644 19.6135 13.7495 20.9146 13.9253C22.2157 14.1011 23.5519 14.3824 24.9585 14.6989V12.1319C24.9585 9.45934 24.3959 7.5956 23.3058 6.50549C22.1805 5.41538 20.2816 4.88791 17.5739 4.88791C16.3431 4.88791 15.0772 5.02857 13.7761 5.34505C12.475 5.66154 11.2091 6.04835 9.97829 6.54066C9.41565 6.78681 8.99368 6.92747 8.74752 6.9978C8.50137 7.06813 8.32554 7.1033 8.18488 7.1033C7.69258 7.1033 7.44642 6.75165 7.44642 6.01319V4.29011C7.44642 3.72747 7.51675 3.30549 7.69258 3.05934C7.8684 2.81319 8.18488 2.56703 8.67719 2.32088C9.90796 1.68791 11.3849 1.16044 13.108 0.738461C14.831 0.281319 16.6596 0.0703296 18.5937 0.0703296C22.7783 0.0703296 25.8376 1.01978 27.8069 2.91868C29.7409 4.81758 30.7255 7.7011 30.7255 11.5692V22.9626H30.7959ZM16.519 28.3077C17.6794 28.3077 18.875 28.0967 20.1409 27.6747C21.4069 27.2527 22.5321 26.4791 23.4816 25.4242C24.0442 24.756 24.4662 24.0176 24.6772 23.1736C24.8882 22.3297 25.0288 21.3099 25.0288 20.1143V18.6374C24.0091 18.3912 22.919 18.1802 21.7937 18.0396C20.6684 17.8989 19.5783 17.8286 18.4882 17.8286C16.1321 17.8286 14.4091 18.2857 13.2486 19.2352C12.0882 20.1846 11.5255 21.5209 11.5255 23.2791C11.5255 24.9319 11.9475 26.1626 12.8266 27.0066C13.6706 27.8857 14.9014 28.3077 16.519 28.3077ZM44.7563 32.1055C44.1233 32.1055 43.7014 32 43.4201 31.7538C43.1387 31.5429 42.8926 31.0505 42.6816 30.3824L34.4179 3.2C34.2069 2.4967 34.1014 2.03956 34.1014 1.79341C34.1014 1.23077 34.3827 0.914286 34.9453 0.914286H38.3915C39.0596 0.914286 39.5168 1.01978 39.7629 1.26593C40.0442 1.47692 40.2552 1.96923 40.4662 2.63736L46.3739 25.9165L51.8596 2.63736C52.0354 1.93407 52.2464 1.47692 52.5277 1.26593C52.8091 1.05494 53.3014 0.914286 53.9343 0.914286H56.7475C57.4157 0.914286 57.8728 1.01978 58.1541 1.26593C58.4354 1.47692 58.6816 1.96923 58.8223 2.63736L64.3783 26.1978L70.4618 2.63736C70.6728 1.93407 70.919 1.47692 71.1651 1.26593C71.4464 1.05494 71.9036 0.914286 72.5365 0.914286H75.8069C76.3695 0.914286 76.686 1.1956 76.686 1.79341C76.686 1.96923 76.6508 2.14505 76.6157 2.35604C76.5805 2.56703 76.5102 2.84835 76.3695 3.23516L67.8948 30.4176C67.6838 31.1209 67.4376 31.578 67.1563 31.789C66.875 32 66.4179 32.1407 65.8201 32.1407H62.7959C62.1277 32.1407 61.6706 32.0352 61.3893 31.789C61.108 31.5429 60.8618 31.0857 60.7212 30.3824L55.2706 7.7011L49.8552 30.3473C49.6794 31.0505 49.4684 31.5077 49.1871 31.7538C48.9058 32 48.4135 32.1055 47.7805 32.1055H44.7563ZM89.9431 33.0549C88.1146 33.0549 86.286 32.844 84.5277 32.422C82.7695 32 81.3981 31.5429 80.4838 31.0154C79.9212 30.6989 79.5343 30.3473 79.3937 30.0308C79.253 29.7143 79.1827 29.3626 79.1827 29.0462V27.2527C79.1827 26.5143 79.464 26.1626 79.9915 26.1626C80.2025 26.1626 80.4135 26.1978 80.6245 26.2681C80.8354 26.3385 81.1519 26.4791 81.5036 26.6198C82.6992 27.1473 84.0003 27.5692 85.3717 27.8505C86.7783 28.1319 88.1497 28.2725 89.5563 28.2725C91.7717 28.2725 93.4948 27.8857 94.6904 27.1121C95.886 26.3385 96.519 25.2132 96.519 23.7714C96.519 22.7868 96.2025 21.978 95.5695 21.3099C94.9365 20.6418 93.7409 20.044 92.0179 19.4813L86.919 17.8989C84.3519 17.0901 82.453 15.8945 81.2926 14.3121C80.1321 12.7648 79.5343 11.0418 79.5343 9.21319C79.5343 7.73626 79.8508 6.43516 80.4838 5.30989C81.1168 4.18462 81.9607 3.2 83.0157 2.42637C84.0706 1.61758 85.2662 1.01978 86.6728 0.597802C88.0794 0.175824 89.5563 0 91.1036 0C91.8772 0 92.686 0.0351648 93.4596 0.140659C94.2684 0.246154 95.0069 0.386813 95.7453 0.527472C96.4486 0.703297 97.1168 0.879121 97.7497 1.09011C98.3827 1.3011 98.875 1.51209 99.2266 1.72308C99.719 2.0044 100.071 2.28571 100.282 2.6022C100.493 2.88352 100.598 3.27033 100.598 3.76264V5.41538C100.598 6.15385 100.317 6.54066 99.7893 6.54066C99.508 6.54066 99.0508 6.4 98.453 6.11868C96.4486 5.2044 94.1981 4.74725 91.7014 4.74725C89.697 4.74725 88.1146 5.06374 87.0245 5.73187C85.9343 6.4 85.3717 7.41978 85.3717 8.86154C85.3717 9.84615 85.7234 10.6901 86.4267 11.3582C87.1299 12.0264 88.431 12.6945 90.2948 13.2923L95.2882 14.8747C97.8201 15.6835 99.6486 16.8088 100.739 18.2505C101.829 19.6923 102.356 21.3451 102.356 23.1736C102.356 24.6857 102.04 26.0571 101.442 27.2527C100.809 28.4483 99.9651 29.5033 98.875 30.3473C97.7849 31.2264 96.4838 31.8593 94.9717 32.3165C93.3893 32.8088 91.7365 33.0549 89.9431 33.0549Z" fill="#81848F"/>
<path fill-rule="evenodd" clip-rule="evenodd" d="M96.5893 50.145C85.0201 58.6901 68.2113 63.2263 53.7585 63.2263C33.5036 63.2263 15.253 55.7362 1.4684 43.2879C0.378292 42.3033 1.36291 40.967 2.66401 41.7406C17.5739 50.3912 35.9651 55.6307 54.9893 55.6307C67.8244 55.6307 81.9256 52.9582 94.9014 47.4725C96.8354 46.5934 98.4882 48.7384 96.5893 50.145Z" fill="#81848F"/>
<path fill-rule="evenodd" clip-rule="evenodd" d="M101.407 44.6593C99.93 42.7604 91.6311 43.7451 87.8684 44.2022C86.7431 44.3429 86.5673 43.3582 87.5871 42.6198C94.1981 37.978 105.064 39.3143 106.33 40.8615C107.596 42.444 105.978 53.3099 99.7893 58.5143C98.8398 59.3231 97.9256 58.9011 98.3475 57.8462C99.7541 54.3648 102.884 46.5231 101.407 44.6593Z" fill="#81848F"/>
</svg>
