<svg width="62" height="64" viewBox="0 0 62 64" fill="none" xmlns="http://www.w3.org/2000/svg">
<path d="M36.0822 62.4617C34.4626 64.5012 31.1789 63.3838 31.1398 60.7796L30.5692 22.6904H56.1804C60.8193 22.6904 63.4064 28.0483 60.5219 31.6814L36.0822 62.4617Z" fill="url(#paint0_linear_1_2)"/>
<path d="M36.0822 62.4617C34.4626 64.5012 31.1789 63.3838 31.1398 60.7796L30.5692 22.6904H56.1804C60.8193 22.6904 63.4064 28.0483 60.5219 31.6814L36.0822 62.4617Z" fill="url(#paint1_linear_1_2)" fill-opacity="0.2"/>
<path d="M25.6663 1.17297C27.2858 -0.866759 30.5696 0.250866 30.6087 2.85508L30.8587 40.9443H5.56807C0.929064 40.9443 -1.65819 35.5863 1.22648 31.9533L25.6663 1.17297Z" fill="#3ECF8E"/>
<defs>
<linearGradient id="paint0_linear_1_2" x1="30.5692" y1="31.1357" x2="53.3315" y2="40.6822" gradientUnits="userSpaceOnUse">
<stop stop-color="#249361"/>
<stop offset="1" stop-color="#3ECF8E"/>
</linearGradient>
<linearGradient id="paint1_linear_1_2" x1="20.4776" y1="17.3185" x2="30.8584" y2="36.8598" gradientUnits="userSpaceOnUse">
<stop/>
<stop offset="1" stop-opacity="0"/>
</linearGradient>
</defs>
</svg>
