<svg width="320" height="64" viewBox="0 0 320 64" fill="none" xmlns="http://www.w3.org/2000/svg">
<path fill-rule="evenodd" clip-rule="evenodd" d="M34.0232 2.56122C51.2413 4.22768 70.1259 12.8357 80.9578 25.3342C94.843 41.1636 90.1233 56.9949 70.4036 60.6036C50.6858 64.492 23.469 54.4952 9.58382 38.6639C-0.9704 26.4432 -0.690702 14.2245 9.02834 7.56059L63.7378 48.1071L34.0232 2.56122Z" fill="#81848F"/>
<path fill-rule="evenodd" clip-rule="evenodd" d="M305.071 60.6036L298.129 32.8313C297.292 29.5003 296.739 26.1674 296.185 23.1123H295.905C295.352 26.4452 295.072 29.5003 294.239 33.109L287.293 60.6036H275.352L291.184 2.83899H300.627L317.291 60.6036H305.071V60.6036ZM122.891 2.83899L129.835 30.6093C130.946 33.9423 131.223 37.2771 131.779 40.3284H132.057C132.612 36.9974 132.89 33.6626 133.723 30.3316L140.667 2.83899H152.608L136.778 60.6036H127.335L110.672 2.83899H122.891V2.83899ZM161.214 2.83899H172.601V60.6036H161.214V2.83899ZM237.034 2.83899L242.862 36.9994L247.584 2.83899H262.858L268.69 60.6036H257.027L254.25 18.9461L252.306 33.109L247.584 60.6036H238.698L233.143 32.8313L231.199 20.0571V18.9461H230.921L229.255 60.6036H217.034L222.036 2.83899H237.034ZM200.929 2.83899C198.985 4.22771 197.598 6.72543 196.487 9.22512C193.432 16.1687 196.763 21.7216 199.54 26.721C199.82 27.2764 200.377 28.1097 200.651 28.9429C207.039 39.4952 209.261 47.27 204.819 58.3778L203.708 60.6017H189.821C191.488 59.211 193.152 57.2707 193.985 55.0468C197.32 47.5477 193.432 40.6061 189.821 33.6606C185.657 25.608 181.211 17.2777 185.933 5.89025C186.213 4.77928 187.324 2.83508 187.324 2.83508H200.929V2.83899Z" fill="#81848F"/>
</svg>
