<svg width="64" height="64" viewBox="0 0 64 64" fill="none" xmlns="http://www.w3.org/2000/svg">
<path d="M32.9995 26.1817V38.5745H50.2212C49.465 42.5599 47.1956 45.9346 43.7921 48.2037L54.1775 56.2619C60.2284 50.6766 63.7193 42.4729 63.7193 32.7275C63.7193 30.4585 63.5157 28.2764 63.1374 26.1821L32.9995 26.1817Z" fill="#4285F4"/>
<path d="M15.0658 38.0907L12.7235 39.8837L4.43245 46.3418C9.69789 56.7853 20.4898 64 32.9988 64C41.6386 64 48.8821 61.1491 54.1768 56.2619L43.7914 48.2037C40.9405 50.1237 37.3041 51.2874 32.9988 51.2874C24.6789 51.2874 17.61 45.6729 15.0789 38.1092L15.0658 38.0907Z" fill="#34A853"/>
<path d="M4.43248 17.6582C2.25078 21.9635 1 26.8217 1 31.9998C1 37.1779 2.25078 42.0362 4.43248 46.3415C4.43248 46.3704 15.0799 38.0796 15.0799 38.0796C14.4399 36.1596 14.0616 34.1234 14.0616 31.9995C14.0616 29.8756 14.4399 27.8393 15.0799 25.9194L4.43248 17.6582Z" fill="#FBBC05"/>
<path d="M32.9995 12.7418C37.7123 12.7418 41.9013 14.3709 45.2467 17.5127L54.4103 8.3492C48.8539 3.17111 41.6396 0 32.9995 0C20.4905 0 9.69789 7.18544 4.43245 17.6582L15.0796 25.92C17.6103 18.3563 24.6795 12.7418 32.9995 12.7418Z" fill="#EA4335"/>
</svg>
