<svg width="64" height="64" viewBox="0 0 64 64" fill="none" xmlns="http://www.w3.org/2000/svg">
<g clip-path="url(#clip0_1_23)">
<path d="M43.2009 19.1989C40.4759 19.1896 37.7758 19.7178 35.2551 20.753C32.7344 21.7882 30.4425 23.3105 28.5106 25.2323C26.5789 27.1543 25.0448 29.4382 23.9966 31.9536C22.9484 34.469 22.4065 37.1664 22.4017 39.8914V60.7972C22.4017 61.646 22.7391 62.4598 23.339 63.06C23.939 63.66 24.7531 63.9971 25.6016 63.9971H33.068C33.9167 63.9971 34.7306 63.66 35.3308 63.06C35.9308 62.4598 36.2678 61.646 36.2678 60.7972V39.8914C36.2673 38.9224 36.4708 37.9637 36.8654 37.0785C37.2598 36.1934 37.8366 35.4012 38.5579 34.7537C39.2792 34.1063 40.1287 33.6181 41.0511 33.321C41.9737 33.0239 42.9486 32.9248 43.912 33.0296C45.64 33.2471 47.2279 34.0914 48.3748 35.4023C49.5217 36.7129 50.1478 38.3989 50.1339 40.1405V60.7972C50.1339 61.646 50.4712 62.4598 51.0712 63.06C51.6712 63.66 52.4853 63.9971 53.3338 63.9971H60.8001C61.6489 63.9971 62.4627 63.66 63.063 63.06C63.663 62.4598 64 61.646 64 60.7972V39.8914C63.9955 37.1664 63.4534 34.469 62.4054 31.9536C61.3572 29.4382 59.8231 27.1543 57.8912 25.2323C55.9595 23.3105 53.6676 21.7882 51.1469 20.753C48.6262 19.7178 45.9261 19.1896 43.2009 19.1989Z" fill="#006097"/>
<path d="M12.7995 22.3983H3.19987C1.43263 22.3983 0 23.831 0 25.5981V60.7967C0 62.5641 1.43263 63.9965 3.19987 63.9965H12.7995C14.5667 63.9965 15.9993 62.5641 15.9993 60.7967V25.5981C15.9993 23.831 14.5667 22.3983 12.7995 22.3983Z" fill="#006097"/>
<path d="M7.99967 15.9993C12.4177 15.9993 15.9993 12.4177 15.9993 7.99967C15.9993 3.58158 12.4177 0 7.99967 0C3.58158 0 0 3.58158 0 7.99967C0 12.4177 3.58158 15.9993 7.99967 15.9993Z" fill="#006097"/>
</g>
<defs>
<clipPath id="clip0_1_23">
<rect width="64" height="64" fill="white"/>
</clipPath>
</defs>
</svg>
