<svg width="156" height="64" viewBox="0 0 156 64" fill="none" xmlns="http://www.w3.org/2000/svg">
<path d="M144.432 44.8261C144.018 44.8261 143.733 44.5373 143.733 44.1218V23.4887H136.772C136.358 23.4887 136.073 23.2012 136.073 22.7853V19.9392C136.073 19.5224 136.358 19.2341 136.772 19.2341H155.302C155.715 19.2341 156 19.5227 156 19.9392V22.7852C156 23.2007 155.715 23.4887 155.302 23.4887H148.341V44.1216C148.341 44.5373 148.055 44.8261 147.642 44.8261H144.432ZM91.1067 34.5248L87.4523 23.9692L83.7653 34.5248H91.1067ZM99.2115 43.9922C99.3712 44.4093 99.1165 44.8261 98.6715 44.8261H95.3667C94.8896 44.8261 94.6032 44.6026 94.4437 44.1528L92.5693 38.7165H82.3045L80.4267 44.1528C80.2691 44.6029 79.9819 44.8261 79.5061 44.8261H76.3925C75.9787 44.8261 75.6923 44.409 75.8512 43.9922L84.4643 19.8752C84.6237 19.4259 84.9096 19.2352 85.3853 19.2352H89.6443C90.1216 19.2352 90.4395 19.426 90.5981 19.8752L99.2115 43.9922ZM123.9 41.3706C125.933 41.3706 127.3 40.3805 128.413 38.6842L123.265 33.1176C121.293 34.2381 120.022 35.3562 120.022 37.596C120.022 39.8037 121.801 41.3706 123.9 41.3706ZM125.33 22.6248C123.677 22.6248 122.724 23.6815 122.724 25.0887C122.724 26.1762 123.295 27.136 124.599 28.544C126.855 27.2314 127.809 26.4321 127.809 25.025C127.809 23.7124 126.983 22.6248 125.33 22.6248ZM139.411 43.9301C139.823 44.3784 139.57 44.8261 139.06 44.8261H135.023C134.483 44.8261 134.197 44.6973 133.848 44.281L131.432 41.5952C129.811 43.7706 127.553 45.4016 123.804 45.4016C119.164 45.4016 115.507 42.5866 115.507 37.7573C115.507 34.0453 117.479 32.0616 120.467 30.3986C119.004 28.7034 118.338 26.9117 118.338 25.3451C118.338 21.3774 121.103 18.6588 125.265 18.6588C129.525 18.6588 132.131 21.1869 132.131 24.9288C132.131 28.1277 129.843 29.9176 127.427 31.2621L130.987 35.1341L132.989 31.6138C133.243 31.1986 133.529 31.0381 134.037 31.0381H137.119C137.629 31.0381 137.915 31.3909 137.598 31.9344L134.038 38.0754L139.411 43.9301ZM107.692 44.8261C108.105 44.8261 108.393 44.5373 108.393 44.1218V23.4887H115.352C115.765 23.4887 116.051 23.2012 116.051 22.7853V19.9392C116.051 19.5224 115.765 19.2341 115.352 19.2341H96.8221C96.4083 19.2341 96.1229 19.5227 96.1229 19.9392V22.7852C96.1229 23.2007 96.4085 23.4887 96.8221 23.4887H103.781V44.1216C103.781 44.5373 104.069 44.8261 104.481 44.8261H107.692Z" fill="#81848F"/>
<path d="M13.6306 57.2723C19.0207 61.4733 25.7862 63.9973 33.1264 63.9973C41.1589 63.9973 48.4819 60.9947 54.0707 56.0656C54.1384 56.0053 54.1051 55.9656 54.0384 56.0053C51.5304 57.6917 44.3827 61.3731 33.1267 61.3731C23.3448 61.3731 17.163 59.1755 13.672 57.2136C13.6052 57.1803 13.5805 57.2307 13.6306 57.2723ZM35.2845 58.9077C43.1083 58.9077 51.7056 56.7605 56.8475 52.5096C58.2547 51.3515 59.5949 49.8101 60.7952 47.7384C61.4864 46.5467 62.1621 45.1304 62.7125 43.7384C62.7371 43.6704 62.6955 43.6376 62.6448 43.7139C57.8632 50.7989 44.0165 55.2181 29.7192 55.2181C19.6134 55.2181 8.7396 51.9643 4.48245 45.7512C4.44056 45.6936 4.39864 45.7184 4.42416 45.7843C8.39 54.2715 20.4214 58.9077 35.2845 58.9077ZM26.7363 44.828C10.4645 44.828 2.79195 37.1976 1.40015 31.9901C1.38299 31.9149 1.33366 31.9315 1.33366 31.9992C1.33366 33.7523 1.50792 36.0144 1.80774 37.516C1.95077 38.2469 2.5416 39.3941 3.40781 40.3085C7.34797 44.4437 17.1714 50.2381 34.184 50.2381C57.3627 50.2381 62.6627 42.464 63.7448 39.9075C64.5187 38.0789 64.9197 34.7749 64.9197 31.9992C64.9197 31.3277 64.9029 30.7912 64.8776 30.2645C64.8776 30.1789 64.8285 30.172 64.8115 30.2552C63.6533 36.5109 43.8496 44.828 26.7363 44.828ZM4.39864 18.2718C3.46627 20.135 2.43274 23.2781 2.1255 24.9049C1.99082 25.6019 2.04819 25.9366 2.29095 26.4568C4.24125 30.6232 14.1062 37.2893 37.1173 37.2893C51.1557 37.2893 62.0613 33.8168 63.828 27.4797C64.1533 26.3133 64.1707 25.0816 63.7528 23.422C63.2859 21.5674 62.4112 19.4048 61.6712 17.8862C61.6467 17.8367 61.6035 17.844 61.6123 17.9025C61.8872 26.2141 38.8669 31.5709 27.252 31.5709C14.6709 31.5709 4.17475 26.5237 4.17475 20.1508C4.17475 19.5385 4.30061 18.926 4.45771 18.2886C4.47349 18.2304 4.424 18.2208 4.39864 18.2718ZM54.1221 8.06699C54.2557 8.27779 54.3224 8.50275 54.3224 8.80557C54.3224 12.3609 43.5155 18.6503 26.3123 18.6503C13.672 18.6503 11.3055 13.9289 11.3055 10.9263C11.3055 9.85304 11.7143 8.75483 12.6147 7.63947C12.6639 7.57315 12.6221 7.54763 12.5654 7.59696C10.9232 8.99816 9.4144 10.5748 8.0908 12.2768C7.45837 13.0817 7.06579 13.7947 7.06579 14.2219C7.06579 20.4443 22.5618 24.9558 37.0509 24.9558C52.4893 24.9558 59.3795 19.8813 59.3795 15.4218C59.3795 13.8281 58.7635 12.8977 57.1872 11.0939C56.164 9.92045 55.196 8.96499 54.1717 8.02448C54.1221 7.98339 54.0877 8.01685 54.1221 8.06699ZM49.3893 4.51248C44.6248 1.63694 39.0917 0.000976562 33.1267 0.000976562C27.12 0.000976562 21.4205 1.69408 16.6387 4.64576C15.2043 5.53459 14.3971 6.24685 14.3971 7.16245C14.3971 9.86144 20.6617 12.7635 31.776 12.7635C42.7749 12.7635 51.3061 9.58477 51.3061 6.52507C51.3061 5.79472 50.672 5.28376 49.3893 4.51248Z" fill="#81848F"/>
</svg>
