<svg width="64" height="64" viewBox="0 0 64 64" fill="none" xmlns="http://www.w3.org/2000/svg">
<path fill-rule="evenodd" clip-rule="evenodd" d="M55.802 37.3333C60.8192 37.3333 64.0841 42.6867 61.7126 47.1083C56.1331 57.51 44.9655 64.4689 32.2275 63.9753C15.6461 63.3335 2.1434 49.8133 1.5214 33.2313C0.837405 14.9967 15.4167 0 33.4987 0C45.6589 0 56.2398 6.78733 61.652 16.78C64.0678 21.2413 60.8764 26.6665 55.8033 26.6665C53.3867 26.6665 51.1176 25.382 49.9819 23.2486C46.5626 16.8287 39.4946 12.6293 31.5654 13.4313C22.5927 14.3393 15.4734 21.7293 14.8741 30.7279C14.1501 41.5946 22.784 50.6667 33.4987 50.6667C40.5988 50.6667 46.7895 46.679 49.94 40.8285C51.1014 38.6732 53.3538 37.3333 55.802 37.3333Z" fill="#12B76A"/>
<path opacity="0.5" fill-rule="evenodd" clip-rule="evenodd" d="M44.1651 31.9999C44.1651 37.8913 39.3893 42.6667 33.4987 42.6667C27.6073 42.6667 22.832 37.8913 22.832 31.9999C22.832 26.1087 27.6073 21.3333 33.4987 21.3333C39.3893 21.3333 44.1651 26.1087 44.1651 31.9999Z" fill="#12B76A"/>
</svg>
