<svg width="680" height="301" viewBox="0 0 680 301" fill="none" xmlns="http://www.w3.org/2000/svg">
  <path
    d="M218.414 230.752H187.47V285.032H112.446V230.752H0.639038V175.013L117.408 4.29297H187.47V174.137H218.414V230.752ZM112.738 174.137V141.452C112.738 135.324 113.03 127.153 113.322 116.647C113.905 106.141 114.197 100.888 114.489 100.305H112.446C108.067 110.227 103.104 119.273 97.5576 128.028L66.3218 174.137H112.738Z"
    fill="#C7C5FC" />
  <path
    d="M441.151 145.247C441.151 194.858 432.685 231.337 416.338 254.391C399.698 277.445 374.301 289.119 339.854 289.119C306.283 289.119 281.177 277.154 263.954 252.932C247.022 228.71 238.556 192.815 238.556 145.247C238.556 95.3444 246.73 58.8658 263.662 35.5195C280.301 12.1732 305.699 0.5 340.146 0.5C373.425 0.5 398.822 12.7568 415.754 36.9786C432.394 61.2004 441.151 97.0953 441.151 145.247ZM313.873 145.247C313.873 177.056 315.916 198.944 319.711 210.617C323.798 222.582 330.22 228.418 339.562 228.418C348.903 228.418 355.618 222.29 359.705 210.033C363.5 197.776 365.543 176.181 365.543 145.247C365.543 114.021 363.5 92.4261 359.705 79.8774C355.618 67.3288 349.195 61.2004 339.854 61.2004C330.512 61.2004 323.798 67.3288 320.003 79.2938C315.624 91.2588 313.873 113.146 313.873 145.247Z"
    fill="#C7C5FC" />
  <path
    d="M679.361 230.752H648.417V285.032H573.393V230.752H461.586V175.013L578.355 4.29297H648.417V174.137H679.361V230.752ZM573.684 174.137V141.452C573.684 135.324 573.976 127.153 574.268 116.647C574.852 106.141 575.144 100.888 575.436 100.305H573.393C569.014 110.227 564.051 119.273 558.505 128.028L527.269 174.137H573.684Z"
    fill="#C7C5FC" />
  <path
    d="M465.382 250.89C465.382 250.89 468.009 246.805 468.593 242.427C469.177 238.05 465.09 233.964 461.587 231.338C458.083 228.711 449.618 221.707 454.872 218.497C460.127 215.287 488.152 206.824 494.866 201.571C501.58 196.318 501.58 186.688 499.829 182.602C498.077 178.225 479.102 161.591 443.195 161.591C407.289 161.591 364.084 179.1 357.662 179.392C351.239 179.684 351.531 167.719 351.531 167.719L350.656 161.591H326.718L322.923 167.719C322.923 167.719 324.383 175.89 317.668 176.766C310.954 177.349 277.675 159.548 253.737 150.209C239.141 144.373 216.371 140.287 209.365 140.287C198.564 140.287 182.508 148.75 179.005 162.174C175.502 175.598 187.47 202.739 190.39 209.451C193.309 216.163 195.352 219.665 193.893 223.166C192.433 226.668 188.93 239.509 188.054 243.011C187.47 246.513 187.47 252.933 188.054 253.517C188.638 254.1 198.564 262.855 199.439 263.147C200.315 263.439 205.278 264.314 203.234 259.645C205.57 262.272 206.737 266.357 208.781 263.147C210.824 259.645 208.781 244.47 208.781 236.882C208.781 229.295 221.334 219.665 222.501 219.081C223.669 218.497 233.886 219.081 236.514 219.081C239.141 219.081 242.644 215.579 236.514 212.952C230.383 210.326 224.837 211.785 220.166 211.493C215.495 211.202 207.905 209.742 211.116 199.82C212.576 195.443 213.16 189.023 213.452 182.894H213.744C226.88 196.026 258.408 209.451 258.408 209.451L278.842 223.166L341.606 238.925L388.314 230.462L401.45 218.497C401.45 218.497 400.867 209.159 414.003 209.159C420.717 209.159 430.351 207.991 432.102 206.824"
    fill="white" />
  <path
    d="M207.613 266.065C206.446 266.065 205.278 265.19 204.694 264.022C202.942 265.19 200.607 264.898 199.439 264.606C198.856 264.314 198.564 264.314 189.806 256.727C188.638 255.559 187.471 254.684 187.471 254.684C185.135 252.933 186.887 242.427 186.887 242.427C187.471 238.925 191.266 225.793 192.725 221.999C193.601 219.664 192.725 217.33 190.39 212.661C190.098 211.785 189.514 210.91 189.222 209.742L188.93 209.159C179.005 186.396 175.21 170.054 177.545 161.299C181.34 147.875 197.396 138.244 209.657 138.244C209.657 138.244 209.657 138.244 209.949 138.244C217.539 138.244 240.309 142.622 254.613 148.458C264.246 152.252 275.048 157.213 285.557 161.882C299.569 168.303 314.165 175.015 317.668 174.723C318.836 174.723 319.712 174.139 320.588 173.264C321.755 171.513 321.755 168.886 321.463 168.011C321.463 167.427 321.463 167.135 321.755 166.843L325.55 160.715C325.842 160.131 326.426 159.84 327.01 159.84H350.948C351.823 159.84 352.699 160.423 352.699 161.59L353.575 167.719C353.575 169.762 353.867 175.306 355.91 177.349C356.494 177.933 357.078 178.225 357.662 177.933C359.122 177.933 364.084 176.474 369.923 174.431C387.438 168.886 416.922 160.131 443.195 160.131C479.978 160.131 499.829 177.641 501.58 182.31C503.624 187.563 503.332 197.777 496.034 203.614C491.655 206.824 480.27 211.201 470.052 214.995C463.63 217.33 457.792 219.664 455.748 220.832C454.872 221.415 454.872 221.707 454.872 221.999C454.872 223.75 457.792 227.252 462.462 230.754C465.09 232.797 471.22 237.758 470.052 243.594C469.177 248.264 466.841 252.641 466.549 252.641C465.966 253.517 464.798 253.808 463.922 253.225C463.046 252.641 462.754 251.474 463.338 250.598C463.338 250.598 465.674 246.804 466.257 242.719C466.841 238.633 461.587 234.548 460.127 233.38C456.624 230.754 450.785 225.793 451.077 221.415C451.077 220.248 451.661 218.497 453.705 217.33C456.04 215.871 461.879 213.828 468.593 211.201C477.934 207.699 489.611 203.322 493.406 200.404C499.537 195.734 499.245 186.98 497.785 183.478C496.034 179.392 477.35 163.633 442.612 163.633C416.922 163.633 387.73 172.68 370.215 177.933C363.5 179.976 358.83 181.435 357.078 181.435C355.327 181.435 353.867 180.851 352.407 179.684C348.904 176.182 348.904 168.594 348.904 167.719L348.32 163.633H327.01L324.091 168.303C324.383 169.762 324.383 173.264 322.339 175.89C321.172 177.641 319.128 178.517 317.085 178.808C312.706 179.1 301.321 174.139 282.93 165.676C272.42 161.007 261.911 156.046 252.278 152.252C237.39 146.415 214.619 142.33 208.781 142.33C199.148 142.33 183.676 150.209 180.172 162.758C178.713 168.303 179.297 180.851 191.266 208.283L191.557 208.867C191.849 209.742 192.433 210.91 192.725 211.785C195.061 217.038 196.52 220.248 195.061 224.042C193.601 227.544 190.098 240.384 189.514 243.594C188.93 246.804 188.93 251.182 189.222 252.641C189.806 252.933 190.39 253.808 191.557 254.684C193.893 256.727 198.564 260.812 199.731 261.688C200.607 261.98 201.191 261.688 201.483 261.688C201.483 261.688 201.483 261.396 201.191 260.812C200.899 259.937 201.191 259.061 201.775 258.478C202.651 257.894 203.526 258.186 204.11 258.769C204.986 259.645 205.57 260.52 206.154 261.396C206.446 261.688 206.738 262.271 207.029 262.563C208.197 260.812 207.613 252.057 207.321 246.221C207.029 242.719 206.738 239.801 206.738 237.174C206.738 228.127 221.334 217.913 221.334 217.622C222.209 217.038 224.253 217.038 232.719 217.33C234.178 217.33 235.638 217.33 236.222 217.33C237.098 217.33 237.681 216.746 237.973 216.454C237.973 216.162 237.681 215.579 235.638 214.703C231.843 212.952 228.048 213.244 224.545 213.244C222.793 213.244 221.334 213.244 219.874 213.244C216.663 212.952 212.284 212.369 209.949 208.867C208.197 206.532 208.197 203.03 209.365 199.236C210.533 195.734 211.408 190.19 211.7 182.894C211.7 182.31 211.992 182.019 212.284 181.727C212.576 181.435 213.16 181.143 213.744 181.143H214.036C214.619 181.143 214.911 181.435 215.203 181.727C228.048 194.567 258.992 207.699 259.284 207.991L279.718 221.707L341.898 237.174L387.73 228.711L399.991 217.622C399.991 216.162 400.575 213.536 402.618 211.201C405.245 208.575 409.04 207.116 414.295 207.116C421.593 207.116 430.059 205.948 431.227 205.073C432.102 204.489 433.27 204.781 433.854 205.365C434.438 206.24 434.438 207.116 433.562 207.991C430.935 210.034 418.382 210.618 414.295 210.618C410.208 210.618 407.289 211.493 405.537 213.536C403.786 215.579 403.786 217.913 403.786 217.913C403.786 218.497 403.494 219.081 403.202 219.373L390.065 231.338C389.773 231.629 389.482 231.629 389.19 231.921L342.482 240.384C342.19 240.384 341.898 240.384 341.606 240.384L278.843 224.625C278.551 224.625 278.551 224.626 278.259 224.334L257.824 210.618C256.948 210.326 229.508 198.653 215.203 186.104C214.619 191.941 214.036 196.61 212.868 199.82C211.992 202.738 211.992 205.073 212.868 206.532C214.328 208.575 217.831 209.159 220.166 209.45C221.334 209.45 222.793 209.45 224.253 209.45C228.048 209.45 232.427 209.159 237.098 211.201C241.768 213.244 241.768 215.871 241.476 217.038C240.893 219.373 238.557 220.832 236.222 220.832C235.346 220.832 234.178 220.832 232.427 220.832C229.799 220.832 223.961 220.54 222.793 220.832C220.75 221.999 210.241 231.046 210.241 236.882C210.241 239.217 210.532 242.427 210.532 245.637C211.116 254.976 211.408 261.396 209.949 264.022C210.241 264.606 209.365 266.065 207.613 266.065Z"
    fill="#3B4B75" />
  <path
    d="M371.674 104.392C371.674 104.392 378.388 94.178 392.109 96.5126C405.829 98.8472 384.519 112.563 374.885 111.688L368.463 128.03L357.37 140.287L339.562 136.493L320.004 136.201L311.538 128.03L307.451 109.937C307.451 109.937 284.681 103.516 285.849 95.0535C287.016 86.5904 305.407 98.2636 305.407 98.2636C305.407 98.2636 308.911 89.8006 311.538 88.9251C314.165 88.0496 313.873 77.5437 313.873 77.5437L361.749 73.75L371.966 87.1741V104.392H371.674Z"
    fill="white" />
  <path
    d="M357.662 142.038H357.37L339.562 138.244L320.295 137.952C319.711 137.952 319.42 137.66 319.128 137.369L310.662 129.197C310.37 128.906 310.078 128.614 310.078 128.322L306.283 111.396C301.32 109.937 283.221 103.808 284.389 94.7615C284.681 92.1351 286.14 91.2596 287.308 90.6759C291.979 88.6331 300.736 93.0106 305.115 95.637C306.575 92.4269 308.91 88.0495 311.538 87.174C312.121 86.5903 312.705 81.921 312.413 77.5436C312.413 76.6681 312.997 75.7926 314.165 75.5008L362.04 71.707C362.624 71.707 363.208 71.9989 363.792 72.2907L374.009 85.7148C374.301 86.0067 374.301 86.2985 374.301 86.8822V99.4308C377.804 96.5125 384.227 92.7187 393.276 94.4697C398.823 95.3452 399.407 98.2635 399.115 100.014C398.239 105.851 384.81 113.147 376.929 113.439L370.798 128.614C370.798 128.905 370.506 128.906 370.506 129.197L359.413 141.454C358.537 141.746 357.953 142.038 357.662 142.038ZM320.879 133.867L339.854 134.158L357.078 137.952L367.295 126.571L373.717 110.52C374.009 109.645 374.885 109.353 375.469 109.353C381.891 109.937 394.444 102.641 395.028 99.139C395.028 98.5553 393.568 97.9717 392.109 97.6798C379.848 95.637 373.717 104.684 373.425 104.976C372.842 105.559 372.258 105.851 371.382 105.851C370.506 105.559 369.922 104.976 369.922 104.1V87.4658L360.581 75.209L315.625 79.0028C315.625 83.3802 315.041 89.5086 312.121 90.3841C311.246 90.6759 308.618 94.7615 307.159 98.8471C306.867 99.4308 306.575 99.7226 305.991 100.014C305.407 100.306 304.823 100.014 304.531 99.7226C299.569 96.5125 291.395 92.7187 288.476 93.886C288.184 93.886 287.892 94.1779 287.6 95.0533C287.016 100.306 301.028 106.143 308.034 107.894C308.618 108.186 309.202 108.478 309.202 109.353L313.289 126.863L320.879 133.867Z"
    fill="#3B4B75" />
  <path
    d="M439.692 295.538C428.307 294.079 416.63 292.911 405.245 291.744C401.45 291.452 397.655 291.16 393.86 290.869C389.189 290.577 384.518 290.285 379.556 289.993C374.009 289.701 368.755 289.409 363.5 289.409C339.562 288.826 315.041 289.409 290.811 291.452C287.016 291.744 283.221 292.036 279.426 292.328C275.339 292.62 270.96 293.203 266.873 293.495C252.569 294.954 238.557 296.705 225.128 298.748C225.128 298.748 202.942 290.577 203.526 253.223C204.11 215.869 244.687 209.157 259.283 209.448C270.085 209.448 318.252 221.705 346.568 222.289C374.885 222.872 407.58 217.328 424.22 217.911C440.86 218.495 461.586 236.005 461.586 258.184C461.586 279.779 442.611 295.83 439.692 295.538Z"
    fill="#C7C5FC" />
  <path
    d="M225.129 300.5C224.837 300.5 224.545 300.5 224.545 300.5C223.669 300.208 201.191 291.161 201.775 253.223C202.359 217.037 239.433 207.406 259.284 207.406C263.663 207.406 273.588 209.157 286.141 211.784C305.408 215.577 329.637 219.955 346.569 220.247C362.041 220.539 378.972 219.079 393.861 217.62C406.121 216.453 416.631 215.577 424.221 215.869C442.028 216.453 463.63 235.422 463.63 257.893C463.63 273.068 454.872 286.2 446.699 293.496C444.655 295.539 441.444 297.581 439.4 297.29C427.724 295.83 416.047 294.371 405.245 293.496C401.451 293.204 397.656 292.912 393.861 292.62C389.19 292.329 384.519 292.037 379.848 291.745C374.594 291.453 369.047 291.161 363.792 291.161C341.022 290.578 316.501 291.161 291.103 293.204C287.308 293.496 283.513 293.788 279.718 294.079C275.632 294.371 271.253 294.955 267.166 295.247C253.153 296.706 239.141 298.457 225.129 300.5ZM258.992 210.908C240.601 210.908 205.862 219.663 205.278 252.932C204.694 285.908 222.209 295.247 225.129 296.706C238.849 294.663 252.861 292.912 266.582 291.453C270.669 291.161 275.048 290.577 279.135 290.286C282.93 289.994 286.725 289.702 290.52 289.41C315.917 287.659 340.438 286.784 363.5 287.367C368.755 287.367 374.302 287.659 379.556 287.951C384.227 288.243 388.898 288.535 393.861 288.827C397.656 289.118 401.451 289.41 405.245 289.702C416.339 290.578 427.724 292.037 439.692 293.496C442.612 292.912 459.543 278.029 459.543 257.601C459.543 236.881 439.984 219.955 423.929 219.371C416.63 219.079 406.121 219.955 394.152 221.122C379.264 222.581 362.333 224.041 346.569 223.749C329.053 223.457 304.824 218.788 285.265 214.994C273.296 212.951 263.079 210.908 258.992 210.908Z"
    fill="#3B4B75" />
  <path
    d="M429.767 272.485C402.91 272.485 363.208 268.983 322.631 261.687C258.7 250.014 204.986 264.314 204.402 264.606C203.526 264.897 202.359 264.314 202.067 263.438C201.775 262.563 202.359 261.395 203.234 261.104C203.818 260.812 258.408 246.512 322.923 258.185C388.314 270.15 446.407 270.734 459.251 266.065C460.127 265.773 461.295 266.357 461.587 267.232C461.879 268.107 461.587 269.275 460.419 269.567C455.456 271.609 444.363 272.485 429.767 272.485Z"
    fill="#3B4B75" />
  <path
    d="M202.358 259.354H202.066C201.775 259.354 194.768 257.019 193.893 251.475C193.017 246.513 193.893 239.218 193.893 238.634C193.893 237.759 194.476 237.467 195.352 237.467C196.228 237.467 196.812 238.342 196.52 238.926C196.52 238.926 195.936 246.513 196.52 250.891C197.104 254.685 202.942 256.727 202.942 256.727C203.526 257.019 204.11 257.603 203.818 258.478C203.526 258.77 202.942 259.354 202.358 259.354Z"
    fill="#3B4B75" />
  <path
    d="M463.922 254.683C463.63 254.683 463.046 254.391 462.754 254.099C462.17 253.516 462.462 252.64 463.046 252.057C464.214 251.181 464.506 245.636 463.922 240.967C463.922 240.091 464.506 239.508 465.09 239.508C465.965 239.508 466.549 240.091 466.549 240.675C466.841 243.302 467.425 251.765 464.506 254.099C464.506 254.683 464.214 254.683 463.922 254.683Z"
    fill="#3B4B75" />
  <path
    d="M339.854 130.948C338.979 130.948 338.103 130.073 338.103 129.197C337.811 120.442 336.935 106.435 336.643 102.641C335.475 102.641 333.432 102.349 332.264 102.641C331.389 105.559 329.637 117.524 328.469 128.03C328.469 128.905 327.594 129.781 326.426 129.489C325.55 129.489 324.674 128.322 324.966 127.446C328.177 100.598 329.345 100.014 329.929 99.4307C331.68 97.9715 338.103 98.847 338.978 99.1389C340.146 99.7225 340.438 100.014 341.898 128.905C341.898 130.073 341.022 130.948 339.854 130.948Z"
    fill="#3B4B75" />
  <path
    d="M317.085 114.315C309.495 114.315 303.364 108.186 303.364 100.599C303.364 93.0112 309.495 86.8828 317.085 86.8828C324.675 86.8828 330.805 93.0112 330.805 100.599C330.805 108.186 324.675 114.315 317.085 114.315ZM317.085 90.6766C311.538 90.6766 306.867 95.054 306.867 100.891C306.867 106.435 311.246 111.105 317.085 111.105C322.631 111.105 327.302 106.727 327.302 100.891C327.302 95.054 322.631 90.6766 317.085 90.6766Z"
    fill="#3B4B75" />
  <path
    d="M351.532 116.066C351.24 116.066 350.948 116.066 350.656 116.066C346.861 115.774 343.65 114.315 341.022 111.397C338.687 108.77 337.227 105.269 337.519 101.475C337.811 93.8872 344.233 88.0507 352.115 88.3425C359.705 88.6343 365.544 95.3464 365.252 102.934C364.96 106.728 363.5 109.938 360.581 112.564C358.246 114.899 355.035 116.066 351.532 116.066ZM341.606 101.767C341.606 104.393 342.482 107.019 344.233 109.062C345.985 111.105 348.612 112.272 351.24 112.272C353.867 112.272 356.494 111.397 358.538 109.646C360.581 107.895 361.749 105.269 361.749 102.642C362.041 97.0973 357.662 92.4281 352.115 92.1362C346.569 92.1362 341.898 96.2218 341.606 101.767Z"
    fill="#3B4B75" />
  <path
    d="M317.084 61.7849C317.084 61.7849 309.494 57.9911 303.364 63.2441C297.233 68.2052 294.022 80.1701 300.153 84.2558C306.283 88.3414 307.451 88.925 311.246 88.925C315.333 89.2169 314.457 85.4231 319.128 82.7966C323.798 80.1701 328.761 80.462 330.221 83.3803C331.68 86.2985 331.972 89.8005 335.767 88.925C339.562 88.0496 338.103 81.6293 342.19 81.0457C346.277 80.462 347.152 83.3803 351.531 83.6721C355.91 83.9639 355.034 81.9211 358.537 85.1313C362.04 88.3414 364.376 86.2986 365.252 88.925C366.127 91.5515 368.463 95.3453 370.214 98.2636C371.966 101.182 371.966 104.392 371.966 104.392C371.966 104.392 378.68 97.6799 383.059 96.5126C383.059 96.5126 380.432 92.427 383.059 88.925C385.686 85.4231 389.189 81.0456 385.102 77.8355C381.015 74.9172 378.096 78.4192 376.928 75.2091C375.761 71.999 374.009 54.1973 361.749 54.1973C349.488 54.1973 349.196 62.9522 343.649 61.7849C338.103 60.3258 337.519 51.5709 331.68 54.1973C325.842 56.8238 330.513 66.4542 325.842 66.1623C320.587 65.5787 322.631 62.9522 317.084 61.7849Z"
    fill="#3B4B75" />
  <path
    d="M371.674 123.945C371.383 121.318 376.053 114.898 374.886 113.731C373.718 112.563 369.631 115.773 367.879 117.816C366.128 119.567 363.793 125.112 358.83 125.987C353.867 126.863 348.904 127.738 345.985 128.03C343.066 128.614 339.855 129.198 339.855 129.198C339.855 129.198 337.519 132.699 332.557 132.699C327.594 132.699 326.718 130.073 326.718 128.906C326.718 127.738 326.718 127.738 326.718 127.738C326.718 127.738 320.004 127.155 315.917 123.361C311.83 119.567 307.451 115.19 307.743 112.271C307.743 112.271 305.116 119.275 305.408 124.528C305.7 129.781 305.7 133.867 305.408 136.785C305.116 139.703 303.656 145.832 305.408 148.166C307.159 150.209 307.451 153.127 307.743 156.338C308.035 159.548 318.252 165.384 326.134 167.135C334.308 169.178 333.432 170.054 338.103 170.345C343.066 170.637 344.526 168.303 348.029 167.135C351.532 165.968 356.202 164.509 360.581 161.007C364.96 157.505 368.755 150.501 367.879 144.373C367.004 138.244 371.674 135.91 371.674 132.116C371.674 128.906 371.966 126.863 371.674 123.945ZM333.724 146.415C332.265 146.415 331.097 144.956 331.097 142.913C331.097 140.871 332.265 139.412 333.724 139.412C335.184 139.412 336.352 140.871 336.352 142.913C336.352 144.956 335.184 146.415 333.724 146.415Z"
    fill="#3B4B75" />
  <path
    d="M331.681 134.45C329.637 134.45 327.886 133.867 326.718 132.407C324.674 130.365 324.966 127.738 324.966 127.446C324.966 126.279 325.842 125.695 327.01 125.695C327.885 125.695 328.761 126.571 328.761 127.446C328.761 127.446 328.761 128.905 329.637 129.781C330.221 130.365 331.097 130.656 332.264 130.656C336.351 130.656 338.395 129.197 338.395 128.905C338.395 128.03 339.27 127.154 340.146 127.154C341.314 127.154 341.898 128.03 342.19 128.905C342.19 129.489 342.19 130.656 341.022 131.532C338.979 133.575 335.767 134.45 331.681 134.45C331.972 134.45 331.681 134.45 331.681 134.45Z"
    fill="#3B4B75" />
  <path
    d="M405.246 291.745C401.451 291.453 397.656 291.161 393.861 290.87C389.19 290.578 384.519 290.286 379.556 289.994C379.556 289.994 390.357 277.445 387.146 251.181C383.935 224.916 376.929 221.123 375.177 221.123C373.426 221.123 371.966 221.123 371.966 221.123C371.966 221.123 372.258 216.161 377.221 215.578C382.184 214.994 384.227 216.745 388.606 215.578C392.985 214.41 406.997 214.119 414.879 244.177C422.469 273.944 405.246 291.745 405.246 291.745Z"
    fill="white" />
  <path
    d="M405.245 293.497C401.159 293.205 397.364 292.913 393.86 292.621C389.19 292.33 384.519 292.038 379.848 291.746C379.264 291.746 378.68 291.162 378.388 290.579C378.097 289.995 378.097 289.12 378.68 288.536C378.68 288.536 388.898 275.987 385.687 250.89C382.475 224.333 375.761 222.583 375.469 222.583C373.426 222.583 371.966 222.583 371.966 222.583C371.09 222.583 370.215 221.707 370.215 220.54C370.507 218.205 371.966 213.828 377.221 213.244C379.848 212.952 381.892 213.244 383.351 213.244C385.103 213.536 386.27 213.536 388.314 213.244C392.985 212.077 408.165 210.909 416.63 243.011C424.512 273.653 407.581 291.746 406.705 292.621C406.121 293.497 405.829 293.497 405.245 293.497ZM383.059 288.244C386.562 288.536 390.357 288.828 393.86 288.828C397.364 289.119 400.867 289.411 404.37 289.703C407.289 286.201 419.55 269.859 412.835 244.178C404.954 214.703 391.525 216.162 388.898 217.038C386.27 217.621 384.519 217.33 382.475 217.038C381.016 216.746 379.556 216.746 377.221 217.038C375.469 217.33 374.593 218.205 374.01 219.081C374.301 219.081 374.593 219.081 374.593 219.081C375.761 219.081 384.811 219.372 388.606 250.598C391.525 270.734 385.978 282.991 383.059 288.244Z"
    fill="#3B4B75" />
  <path
    d="M290.811 291.161C287.016 291.453 283.221 291.745 279.426 292.037C275.34 292.329 270.961 292.912 266.874 293.204C266.874 293.204 253.153 279.78 252.278 253.807C251.11 227.834 261.619 212.659 281.178 209.157C281.178 209.157 285.557 207.99 288.184 209.157C291.103 210.325 294.315 211.492 297.526 211.784C300.737 212.076 300.153 216.161 300.153 216.161C300.153 216.161 276.215 241.259 289.644 287.659L290.811 291.161Z"
    fill="white" />
  <path
    d="M266.874 295.247C266.29 295.247 265.998 294.955 265.706 294.663C265.122 294.079 251.694 280.364 250.526 254.099C249.359 227.542 259.868 211.492 280.886 207.406C281.178 207.406 285.849 205.947 289.06 207.406C292.271 208.865 295.19 209.741 297.818 210.033C299.277 210.325 300.153 210.908 301.029 211.784C302.489 213.535 302.197 216.161 301.905 216.453C301.905 216.745 301.613 217.037 301.321 217.328C301.029 217.62 278.259 242.134 291.396 286.784L292.563 290.578C292.855 291.161 292.563 291.745 292.271 292.037C291.979 292.62 291.395 292.912 290.812 292.912C287.017 293.204 283.222 293.496 279.427 293.788C275.34 294.371 271.253 294.663 266.874 295.247ZM285.265 210.325C283.805 210.325 282.346 210.616 281.762 210.908C262.495 214.702 253.153 229.002 254.321 253.807C255.197 275.694 265.414 288.535 267.75 291.453C271.545 291.161 275.632 290.577 279.427 290.286C282.346 289.994 285.557 289.702 288.476 289.41L287.892 287.951C275.048 244.177 294.899 219.08 298.402 215.286C298.402 214.702 298.402 214.118 298.11 213.827C298.11 213.827 297.818 213.535 297.526 213.535C294.607 213.243 291.104 212.367 287.6 210.616C286.725 210.616 286.141 210.325 285.265 210.325Z"
    fill="#3B4B75" />
  <path
    d="M199.732 236.883C199.732 236.883 200.023 238.634 199.732 242.136C199.44 245.638 201.191 257.02 203.527 259.646C205.862 262.272 207.03 266.358 209.073 263.148C211.117 259.646 209.073 244.471 209.073 236.883C209.073 229.296 221.626 219.665 222.794 219.082C223.961 218.498 234.179 219.082 236.806 219.082C239.433 219.082 242.936 215.58 236.806 212.953C230.675 210.327 225.129 211.786 220.458 211.494C215.787 211.202 208.197 209.743 211.408 199.821C212.868 195.444 213.452 189.023 213.744 182.895C214.328 175.016 214.036 168.012 214.036 168.012"
    fill="white" />
  <path
    d="M207.613 266.066C205.862 266.066 204.694 264.607 203.818 262.856C203.234 262.272 202.943 261.397 202.359 260.813C199.439 257.603 197.688 245.638 198.272 241.844C198.564 238.634 198.272 237.175 198.272 237.175C197.98 236.3 198.564 235.132 199.731 235.132C200.607 234.84 201.775 235.424 202.067 236.591C202.067 236.883 202.651 238.634 202.067 242.428C201.775 246.222 203.526 256.728 205.278 258.479C206.154 259.354 206.738 260.229 207.321 261.105C207.613 261.397 207.905 261.98 208.197 262.272C209.365 260.521 208.781 251.766 208.489 245.93C208.197 242.428 207.905 239.51 207.905 236.883C207.905 227.836 222.501 217.622 222.501 217.331C223.377 216.747 225.421 216.747 233.886 217.039C235.346 217.039 236.806 217.039 237.39 217.039C238.265 217.039 238.849 216.455 239.141 216.163C239.141 215.871 238.849 215.288 236.806 214.412C233.011 212.661 229.216 212.953 225.713 212.953C223.961 212.953 222.501 212.953 221.042 212.953C217.831 212.661 213.452 212.078 211.116 208.576C209.365 206.241 209.365 202.739 210.533 198.945C211.7 195.443 212.576 189.899 212.868 182.603C213.452 174.724 213.16 167.72 213.16 167.72C213.16 166.844 214.036 165.969 214.911 165.969C216.079 165.969 216.663 166.844 216.663 167.72C216.663 167.72 216.663 175.015 216.371 182.895C215.787 190.482 214.911 196.319 213.744 200.113C212.868 203.031 212.868 205.366 213.744 206.825C215.203 208.868 218.706 209.451 221.042 209.743C222.209 209.743 223.669 209.743 225.129 209.743C228.924 209.743 233.303 209.451 237.973 211.494C242.644 213.537 242.644 216.163 242.352 217.331C241.768 219.665 239.433 221.124 237.098 221.124C236.222 221.124 235.054 221.124 233.303 221.124C230.675 221.124 224.837 220.833 223.669 221.124C221.626 222.292 211.116 231.338 211.116 237.175C211.116 239.51 211.408 242.72 211.408 245.93C211.992 255.268 212.284 261.689 210.824 264.315C210.241 264.607 209.365 266.066 207.613 266.066Z"
    fill="#3B4B75" />
  <path
    d="M458.667 262.563C458.375 262.563 458.375 262.563 458.084 262.563C455.748 261.979 455.164 258.769 454.872 255.559C454.58 251.182 451.953 244.178 448.158 239.8C447.574 239.217 446.99 238.341 446.115 237.466C442.028 231.921 435.605 223.75 421.885 222.291C406.121 220.54 406.121 220.248 406.121 218.497C406.121 217.913 406.705 217.33 407.289 216.746C408.456 215.87 416.047 210.326 423.053 209.45C427.723 208.866 431.518 205.656 435.313 202.446C437.065 200.987 438.525 199.82 440.276 198.361C442.32 196.901 444.363 193.983 446.698 191.065C450.785 185.52 455.456 179.392 462.17 177.641C463.046 177.349 464.214 177.933 464.506 179.1C464.798 179.975 464.214 181.143 463.046 181.435C457.5 182.894 453.413 188.438 449.618 193.4C447.282 196.61 444.947 199.82 442.32 201.571C440.568 202.738 439.108 204.197 437.357 205.365C433.27 208.866 428.891 212.368 423.345 213.244C419.55 213.828 415.463 215.87 412.543 217.621C414.587 217.913 417.506 218.205 422.177 218.789C437.357 220.54 444.655 229.878 449.034 235.423C449.618 236.298 450.202 237.174 450.785 237.757C455.164 243.01 458.083 250.598 458.375 255.559C458.375 257.018 458.667 257.894 458.959 258.477C459.251 258.186 459.543 257.602 459.835 257.018C462.17 252.933 459.543 244.761 458.375 241.843C458.083 240.968 458.375 239.8 459.251 239.508C460.127 239.217 461.295 239.509 461.587 240.384C462.17 241.551 466.549 252.349 462.754 258.769C462.17 260.52 460.711 262.563 458.667 262.563Z"
    fill="#3B4B75" />
  <path
    d="M460.127 241.258C460.127 241.258 464.798 252.347 461.586 257.892C458.083 263.729 457.208 259.935 456.624 255.557C456.332 251.18 453.705 243.592 449.618 238.631C445.239 233.67 438.816 222.289 422.177 220.538C405.245 218.787 408.165 218.495 408.165 218.495C408.165 218.495 416.047 212.367 423.053 211.199C430.059 210.032 431.518 206.822 437.649 202.736"
    fill="white" />
  <path
    d="M458.667 262.562C458.375 262.562 458.375 262.562 458.084 262.562C455.748 261.979 455.164 258.769 454.872 255.558C454.58 251.181 451.953 244.177 448.158 239.8C447.574 239.216 446.99 238.341 446.115 237.465C442.028 231.92 435.605 223.749 421.885 222.29C406.121 220.539 406.121 220.247 406.121 218.496C406.121 217.913 406.705 217.329 407.289 216.745C408.456 215.87 416.047 210.325 423.053 209.45C427.432 208.866 429.475 207.115 432.394 204.78C433.562 203.613 435.022 202.446 437.065 201.278C437.941 200.695 439.108 200.986 439.692 201.862C440.276 202.737 439.984 203.905 439.108 204.488C437.357 205.656 435.897 206.823 434.73 207.99C431.518 210.617 429.183 212.66 423.636 213.535C419.841 214.119 415.755 216.162 412.835 217.913C414.879 218.204 417.798 218.496 422.469 219.08C437.649 220.831 444.947 230.169 449.326 235.714C449.91 236.59 450.493 237.465 451.077 238.049C455.456 243.302 458.375 250.889 458.667 255.85C458.667 257.309 458.959 258.185 459.251 258.769C459.543 258.477 459.835 257.893 460.127 257.309C462.462 253.224 459.835 245.053 458.667 242.134C458.375 241.259 458.667 240.092 459.543 239.8C460.419 239.508 461.587 239.8 461.878 240.675C462.462 241.842 466.841 252.64 463.046 259.06C462.17 260.52 460.711 262.562 458.667 262.562Z"
    fill="#3B4B75" />
</svg>
  